<svg width="17" height="14" viewBox="0 0 17 14" fill="none" xmlns="http://www.w3.org/2000/svg">
<g id="Layer_1" clip-path="url(#clip0_550_6)">
<path id="Vector" d="M15.9947 6.71994L10.1347 1.05994C10.1347 1.05994 10.1247 1.05994 10.1147 1.04994C10.0347 0.979941 9.92471 0.939941 9.82471 0.939941C9.57471 0.939941 9.37471 1.13994 9.37471 1.38994C9.37471 1.49994 9.41471 1.60994 9.49471 1.69994C9.49471 1.69994 9.49471 1.70994 9.50471 1.71994L14.5247 6.55994H0.834707C0.714707 6.55994 0.604707 6.60994 0.514707 6.68994C0.344707 6.85994 0.344707 7.14994 0.514707 7.31994C0.594707 7.39994 0.714707 7.44994 0.834707 7.44994H14.5347L9.51471 12.2899C9.51471 12.2899 9.51471 12.2899 9.50471 12.3099C9.42471 12.3899 9.38471 12.4999 9.38471 12.6199C9.38471 12.8699 9.58471 13.0699 9.83471 13.0699C9.94471 13.0699 10.0447 13.0299 10.1247 12.9599C10.1247 12.9599 10.1347 12.9599 10.1447 12.9499L16.0047 7.29994C16.0847 7.22994 16.1247 7.12994 16.1247 7.01994C16.1247 6.90994 16.0847 6.80994 16.0047 6.73994L15.9947 6.71994Z" fill="url(#paint0_linear_550_6)"/>
</g>
<defs>
<linearGradient id="paint0_linear_550_6" x1="16.1247" y1="7.00494" x2="0.387207" y2="7.00494" gradientUnits="userSpaceOnUse">
<stop stop-color="#B38A4D"/>
<stop offset="1" stop-color="#FCE99F"/>
</linearGradient>
<clipPath id="clip0_550_6">
<rect width="15.73" height="12.12" fill="white" transform="translate(0.384766 0.939941)"/>
</clipPath>
</defs>
</svg>
