<svg width="16" height="17" viewBox="0 0 16 17" fill="none" xmlns="http://www.w3.org/2000/svg">
<g clip-path="url(#clip0_550_806)">
<g clip-path="url(#clip1_550_806)">
<path d="M15.6099 8.21994L9.74994 2.55994C9.74994 2.55994 9.73994 2.55994 9.72994 2.54994C9.64994 2.47994 9.53994 2.43994 9.43994 2.43994C9.18994 2.43994 8.98994 2.63994 8.98994 2.88994C8.98994 2.99994 9.02994 3.10994 9.10994 3.19994C9.10994 3.19994 9.10994 3.20994 9.11994 3.21994L14.1399 8.05994H0.449941C0.329941 8.05994 0.219941 8.10994 0.129941 8.18994C-0.0400586 8.35994 -0.0400586 8.64994 0.129941 8.81994C0.209941 8.89994 0.329941 8.94994 0.449941 8.94994H14.1499L9.12994 13.7899C9.12994 13.7899 9.12994 13.7899 9.11994 13.8099C9.03994 13.8899 8.99994 13.9999 8.99994 14.1199C8.99994 14.3699 9.19994 14.5699 9.44994 14.5699C9.55994 14.5699 9.65994 14.5299 9.73994 14.4599C9.73994 14.4599 9.74994 14.4599 9.75994 14.4499L15.6199 8.79994C15.6999 8.72994 15.7399 8.62994 15.7399 8.51994C15.7399 8.40994 15.6999 8.30994 15.6199 8.23994L15.6099 8.21994Z" fill="#0F4C3B"/>
</g>
</g>
<defs>
<clipPath id="clip0_550_806">
<rect width="15.73" height="16.12" fill="white" transform="translate(0 0.439941)"/>
</clipPath>
<clipPath id="clip1_550_806">
<rect width="15.73" height="12.12" fill="white" transform="translate(0 2.43994)"/>
</clipPath>
</defs>
</svg>
