<svg width="121" height="42" viewBox="0 0 121 42" fill="none" xmlns="http://www.w3.org/2000/svg">
<rect x="0.5" y="0.5" width="120" height="41" rx="3.5" stroke="url(#paint0_linear_897_6625)"/>
<path d="M16.732 20.246H19.042V21.94H16.732V24.25H15.038V21.94H12.742V20.246H15.038V17.95H16.732V20.246ZM26.0726 20.904C26.9826 21.45 27.4306 22.234 27.4306 23.27C27.4306 25.076 26.0866 26.196 23.9166 26.196C21.7326 26.196 20.4026 25.076 20.4026 23.27C20.4026 22.234 20.8506 21.45 21.7466 20.904C21.0606 20.414 20.7246 19.728 20.7246 18.874C20.7246 17.964 21.0326 17.264 21.6346 16.76C22.2506 16.256 23.0066 16.004 23.9166 16.004C24.8266 16.004 25.5826 16.256 26.1846 16.76C26.7866 17.264 27.0946 17.964 27.0946 18.874C27.0946 19.742 26.7586 20.414 26.0726 20.904ZM24.8266 18.132C24.5886 17.922 24.2946 17.824 23.9166 17.824C23.5386 17.824 23.2446 17.922 23.0066 18.132C22.7686 18.342 22.6566 18.622 22.6566 18.972C22.6566 19.322 22.7686 19.616 23.0066 19.826C23.2446 20.036 23.5386 20.134 23.9166 20.134C24.2946 20.134 24.5886 20.036 24.8266 19.826C25.0646 19.616 25.1766 19.322 25.1766 18.972C25.1766 18.622 25.0646 18.342 24.8266 18.132ZM25.5126 23.018C25.5126 22.178 24.8686 21.674 23.9166 21.674C22.9646 21.674 22.3206 22.178 22.3206 23.018C22.3206 23.872 22.9646 24.376 23.9166 24.376C24.8686 24.376 25.5126 23.872 25.5126 23.018ZM35.0834 22.542H36.1334V24.334H35.0834V26H33.1374V24.334H28.5034V22.542L31.7654 16.2H33.8374L30.5894 22.542H33.1374V20.218H35.0834V22.542ZM46.3125 20.904C47.2225 21.45 47.6705 22.234 47.6705 23.27C47.6705 25.076 46.3265 26.196 44.1565 26.196C41.9725 26.196 40.6425 25.076 40.6425 23.27C40.6425 22.234 41.0905 21.45 41.9865 20.904C41.3005 20.414 40.9645 19.728 40.9645 18.874C40.9645 17.964 41.2725 17.264 41.8745 16.76C42.4905 16.256 43.2465 16.004 44.1565 16.004C45.0665 16.004 45.8225 16.256 46.4245 16.76C47.0265 17.264 47.3345 17.964 47.3345 18.874C47.3345 19.742 46.9985 20.414 46.3125 20.904ZM45.0665 18.132C44.8285 17.922 44.5345 17.824 44.1565 17.824C43.7785 17.824 43.4845 17.922 43.2465 18.132C43.0085 18.342 42.8965 18.622 42.8965 18.972C42.8965 19.322 43.0085 19.616 43.2465 19.826C43.4845 20.036 43.7785 20.134 44.1565 20.134C44.5345 20.134 44.8285 20.036 45.0665 19.826C45.3045 19.616 45.4165 19.322 45.4165 18.972C45.4165 18.622 45.3045 18.342 45.0665 18.132ZM45.7525 23.018C45.7525 22.178 45.1085 21.674 44.1565 21.674C43.2045 21.674 42.5605 22.178 42.5605 23.018C42.5605 23.872 43.2045 24.376 44.1565 24.376C45.1085 24.376 45.7525 23.872 45.7525 23.018ZM54.4445 20.904C55.3545 21.45 55.8025 22.234 55.8025 23.27C55.8025 25.076 54.4585 26.196 52.2885 26.196C50.1045 26.196 48.7745 25.076 48.7745 23.27C48.7745 22.234 49.2225 21.45 50.1185 20.904C49.4325 20.414 49.0965 19.728 49.0965 18.874C49.0965 17.964 49.4045 17.264 50.0065 16.76C50.6225 16.256 51.3785 16.004 52.2885 16.004C53.1985 16.004 53.9545 16.256 54.5565 16.76C55.1585 17.264 55.4665 17.964 55.4665 18.874C55.4665 19.742 55.1305 20.414 54.4445 20.904ZM53.1985 18.132C52.9605 17.922 52.6665 17.824 52.2885 17.824C51.9105 17.824 51.6165 17.922 51.3785 18.132C51.1405 18.342 51.0285 18.622 51.0285 18.972C51.0285 19.322 51.1405 19.616 51.3785 19.826C51.6165 20.036 51.9105 20.134 52.2885 20.134C52.6665 20.134 52.9605 20.036 53.1985 19.826C53.4365 19.616 53.5485 19.322 53.5485 18.972C53.5485 18.622 53.4365 18.342 53.1985 18.132ZM53.8845 23.018C53.8845 22.178 53.2405 21.674 52.2885 21.674C51.3365 21.674 50.6925 22.178 50.6925 23.018C50.6925 23.872 51.3365 24.376 52.2885 24.376C53.2405 24.376 53.8845 23.872 53.8845 23.018ZM62.5765 20.904C63.4865 21.45 63.9345 22.234 63.9345 23.27C63.9345 25.076 62.5905 26.196 60.4205 26.196C58.2365 26.196 56.9065 25.076 56.9065 23.27C56.9065 22.234 57.3545 21.45 58.2505 20.904C57.5645 20.414 57.2285 19.728 57.2285 18.874C57.2285 17.964 57.5365 17.264 58.1385 16.76C58.7545 16.256 59.5105 16.004 60.4205 16.004C61.3305 16.004 62.0865 16.256 62.6885 16.76C63.2905 17.264 63.5985 17.964 63.5985 18.874C63.5985 19.742 63.2625 20.414 62.5765 20.904ZM61.3305 18.132C61.0925 17.922 60.7985 17.824 60.4205 17.824C60.0425 17.824 59.7485 17.922 59.5105 18.132C59.2725 18.342 59.1605 18.622 59.1605 18.972C59.1605 19.322 59.2725 19.616 59.5105 19.826C59.7485 20.036 60.0425 20.134 60.4205 20.134C60.7985 20.134 61.0925 20.036 61.3305 19.826C61.5685 19.616 61.6805 19.322 61.6805 18.972C61.6805 18.622 61.5685 18.342 61.3305 18.132ZM62.0165 23.018C62.0165 22.178 61.3725 21.674 60.4205 21.674C59.4685 21.674 58.8245 22.178 58.8245 23.018C58.8245 23.872 59.4685 24.376 60.4205 24.376C61.3725 24.376 62.0165 23.872 62.0165 23.018ZM68.9866 26.196C67.7686 26.196 66.8026 25.734 66.1026 24.81C65.4166 23.872 65.0666 22.64 65.0666 21.1C65.0666 19.56 65.4166 18.328 66.1026 17.404C66.8026 16.466 67.7686 16.004 68.9866 16.004C70.2186 16.004 71.1846 16.466 71.8706 17.404C72.5566 18.328 72.9066 19.56 72.9066 21.1C72.9066 22.64 72.5566 23.872 71.8706 24.81C71.1846 25.734 70.2186 26.196 68.9866 26.196ZM70.9886 21.1C70.9886 19.014 70.2886 17.88 68.9866 17.88C67.6846 17.88 66.9986 19.014 66.9986 21.1C66.9986 23.186 67.6846 24.306 68.9866 24.306C70.2886 24.306 70.9886 23.172 70.9886 21.1ZM83.4049 16.2L81.2349 19.378C82.2569 19.406 83.0829 19.742 83.7129 20.372C84.3429 21.002 84.6649 21.8 84.6649 22.78C84.6649 23.774 84.3289 24.6 83.6709 25.244C83.0129 25.874 82.1589 26.196 81.1089 26.196C80.0589 26.196 79.2049 25.874 78.5469 25.244C77.8889 24.614 77.5669 23.788 77.5669 22.78C77.5669 22.038 77.7629 21.38 78.1409 20.806L81.1929 16.2H83.4049ZM82.7469 22.78C82.7469 21.828 82.0469 21.198 81.1089 21.198C80.1709 21.198 79.4849 21.814 79.4849 22.78C79.4849 23.746 80.1709 24.376 81.1089 24.376C82.0469 24.376 82.7469 23.746 82.7469 22.78ZM92.1544 19.406C92.1544 20.162 91.9584 20.82 91.5664 21.394H91.5804L88.5284 26H86.3164L88.5004 22.808C87.4784 22.794 86.6524 22.472 86.0084 21.842C85.3784 21.212 85.0564 20.4 85.0564 19.406C85.0564 18.412 85.3784 17.586 86.0364 16.956C86.6944 16.326 87.5484 16.004 88.5984 16.004C89.6484 16.004 90.5024 16.326 91.1604 16.956C91.8184 17.586 92.1544 18.398 92.1544 19.406ZM86.9744 19.406C86.9744 20.372 87.6884 21.002 88.5984 21.002C89.5504 21.002 90.2364 20.372 90.2364 19.406C90.2364 18.44 89.5504 17.824 88.5984 17.824C87.6884 17.824 86.9744 18.454 86.9744 19.406ZM100.068 19.406C100.068 20.162 99.8717 20.82 99.4797 21.394H99.4937L96.4417 26H94.2297L96.4137 22.808C95.3917 22.794 94.5657 22.472 93.9217 21.842C93.2917 21.212 92.9697 20.4 92.9697 19.406C92.9697 18.412 93.2917 17.586 93.9497 16.956C94.6077 16.326 95.4617 16.004 96.5117 16.004C97.5617 16.004 98.4157 16.326 99.0737 16.956C99.7317 17.586 100.068 18.398 100.068 19.406ZM94.8877 19.406C94.8877 20.372 95.6017 21.002 96.5117 21.002C97.4637 21.002 98.1497 20.372 98.1497 19.406C98.1497 18.44 97.4637 17.824 96.5117 17.824C95.6017 17.824 94.8877 18.454 94.8877 19.406ZM106.447 16.2L104.277 19.378C105.299 19.406 106.125 19.742 106.755 20.372C107.385 21.002 107.707 21.8 107.707 22.78C107.707 23.774 107.371 24.6 106.713 25.244C106.055 25.874 105.201 26.196 104.151 26.196C103.101 26.196 102.247 25.874 101.589 25.244C100.931 24.614 100.609 23.788 100.609 22.78C100.609 22.038 100.805 21.38 101.183 20.806L104.235 16.2H106.447ZM105.789 22.78C105.789 21.828 105.089 21.198 104.151 21.198C103.213 21.198 102.527 21.814 102.527 22.78C102.527 23.746 103.213 24.376 104.151 24.376C105.089 24.376 105.789 23.746 105.789 22.78Z" fill="#005298"/>
<defs>
<linearGradient id="paint0_linear_897_6625" x1="23.2406" y1="76.8249" x2="126.35" y2="8.02193" gradientUnits="userSpaceOnUse">
<stop stop-color="#FFDC7C"/>
<stop offset="0.14" stop-color="#FEE8AC"/>
<stop offset="0.28" stop-color="#E3EAD1"/>
<stop offset="0.42" stop-color="#9AD7D7"/>
<stop offset="0.56" stop-color="#61C7D8"/>
<stop offset="0.7" stop-color="#9BBCDE"/>
<stop offset="0.86" stop-color="#C9C5DE"/>
<stop offset="1" stop-color="#EFB8CE"/>
</linearGradient>
</defs>
</svg>
