<svg width="23" height="24" viewBox="0 0 23 24" fill="none" xmlns="http://www.w3.org/2000/svg">
<g clip-path="url(#clip0_897_6609)">
<path d="M22.7666 9.68704C22.9196 10.4355 23 11.2106 23 12.0043C23 12.798 22.9218 13.552 22.7727 14.291H14.1052V23.2122C13.4088 23.3735 12.6881 23.4714 11.9497 23.5H11.0503C10.2974 23.471 9.56309 23.3697 8.85399 23.2025V14.291H0.22729C0.078179 13.552 0 12.7872 0 12.0043C0 11.2213 0.0803751 10.4355 0.233439 9.68704H8.85399V0.806022C9.70364 0.605889 10.5895 0.5 11.5 0.5C12.4105 0.5 13.268 0.602374 14.1052 0.796356V9.68704H22.7666Z" fill="#CE1124"/>
<path d="M7.12373 1.36227V7.01369L2.65588 4.65053C3.84614 3.2195 5.37678 2.08196 7.12373 1.36227Z" fill="#00247D"/>
<path d="M4.31433 8.13629H0.819996L0.69043 8.06841C0.876654 7.5572 1.09801 7.06269 1.35166 6.58817L4.31433 8.13629Z" fill="#CE1124"/>
<path d="M22.1802 15.8347L22.321 15.9085C22.1363 16.4204 21.9163 16.9156 21.6639 17.391L18.6857 15.8347H22.1802Z" fill="#CE1124"/>
<path d="M7.12368 16.996V22.6463C5.37717 21.9268 3.84653 20.7895 2.65649 19.3587L7.12368 16.996Z" fill="#00247D"/>
<path d="M7.13777 15.8343V16.1458L2.17538 18.739C1.86047 18.3036 1.57542 17.8451 1.32288 17.3666L4.23944 15.8343H7.13777Z" fill="#CE1124"/>
<path d="M20.3435 4.65009L15.8767 7.01259V1.36249C17.6232 2.08196 19.1536 3.21927 20.3435 4.65009Z" fill="#00247D"/>
<path d="M21.6864 6.65977L18.8867 8.14441H15.8893V7.88474L20.8435 5.29596C21.1549 5.72896 21.4367 6.18459 21.6864 6.65977Z" fill="#CE1124"/>
<path d="M15.8767 22.6461V16.994L20.3446 19.3572C19.1547 20.7884 17.6237 21.9264 15.8767 22.6461Z" fill="#00247D"/>
</g>
<defs>
<clipPath id="clip0_897_6609">
<rect width="23" height="23" fill="white" transform="translate(0 0.5)"/>
</clipPath>
</defs>
</svg>
