<svg width="36" height="37" viewBox="0 0 36 37" fill="none" xmlns="http://www.w3.org/2000/svg">
<g clip-path="url(#clip0_731_3133)">
<path d="M18 36.9629C8.06281 36.9629 0 28.9001 0 18.9629C0 9.0257 8.06281 0.962891 18 0.962891C27.9372 0.962891 36 9.0257 36 18.9629C36 28.9001 27.9372 36.9629 18 36.9629Z" fill="#F4F4F4"/>
<path d="M15.7983 30.4769H19.785V20.986H22.7007L23.1768 17.3265H19.7553C19.7553 17.3265 19.7553 16.7612 19.7553 15.4521C19.7255 12.9232 21.0941 13.0719 21.5999 13.0719C22.1057 13.0719 23.3553 13.1017 23.3553 13.1017C23.3553 13.1017 23.4148 12.0306 23.385 10.067C16.2445 8.4901 15.947 13.6967 15.947 13.6967L15.828 17.3265H12.6743L12.6445 20.9562H15.7983V30.4769Z" fill="#005298"/>
<path d="M18 1.55793C27.6099 1.55793 35.405 9.35297 35.405 18.9629C35.405 28.5728 27.6099 36.3679 18 36.3679C8.39008 36.3679 0.595041 28.5728 0.595041 18.9629C0.595041 9.35297 8.39008 1.55793 18 1.55793ZM18 0.962891C8.06281 0.962891 0 9.0257 0 18.9629C0 28.9001 8.06281 36.9629 18 36.9629C27.9372 36.9629 36 28.9001 36 18.9629C36 9.0257 27.9372 0.962891 18 0.962891Z" fill="#F4F4F4"/>
</g>
<defs>
<clipPath id="clip0_731_3133">
<rect width="36" height="36" fill="white" transform="translate(0 0.962891)"/>
</clipPath>
</defs>
</svg>
