<svg width="60" height="60" viewBox="0 0 60 60" fill="none" xmlns="http://www.w3.org/2000/svg">
<g clip-path="url(#clip0_372_10998)">
<path d="M30.0001 59.7522C13.5869 59.7522 0.248047 46.4133 0.248047 30.0001C0.248047 13.5869 13.5869 0.248047 30.0001 0.248047C46.4133 0.248047 59.7522 13.5869 59.7522 30.0001C59.7522 46.4133 46.4133 59.7522 30.0001 59.7522Z" fill="#0F4C3B"/>
<path d="M30.0001 1.23978C45.8679 1.23978 58.7604 14.1323 58.7604 30.0001C58.7604 45.8679 45.8679 58.7604 30.0001 58.7604C14.1323 58.7604 1.23978 45.8679 1.23978 30.0001C1.23978 14.1323 14.1323 1.23978 30.0001 1.23978ZM30.0001 0.248047C13.5869 0.248047 0.248047 13.5869 0.248047 30.0001C0.248047 46.4133 13.5869 59.7522 30.0001 59.7522C46.4133 59.7522 59.7522 46.4133 59.7522 30.0001C59.7522 13.5869 46.4133 0.248047 30.0001 0.248047Z" fill="url(#paint0_linear_372_10998)"/>
<path d="M23.5045 24H13.8847V26.0826H20.5789L13.9838 34.2149C13.7855 34.5124 13.6367 34.8099 13.6367 35.4545V36H22.7111C23.1574 36 23.5541 35.6033 23.5541 35.157V34.0661H16.5128L22.7111 26.3306C22.8103 26.2314 22.959 26.0331 23.0582 25.9339L23.1078 25.8843C23.4549 25.3388 23.5541 24.8926 23.5541 24.3471V24H23.5045ZM35.7028 35.9504H37.0913V24H35.0086V35.2562C35.0582 35.6033 35.3557 35.9504 35.7028 35.9504ZM28.6615 26.6281C26.083 26.6281 24.0004 28.7107 24.0004 31.2893C24.0004 33.8678 26.083 35.9504 28.6615 35.9504C31.24 35.9504 33.3227 33.8678 33.3227 31.2893C33.3723 28.7603 31.2896 26.6281 28.6615 26.6281ZM28.6615 34.0661C27.1243 34.0661 25.8847 32.8264 25.8847 31.2893C25.8847 29.7521 27.1243 28.5124 28.6615 28.5124C30.1987 28.5124 31.4384 29.7521 31.4384 31.2893C31.4384 32.8264 30.1987 34.0661 28.6615 34.0661ZM43.1904 26.5785C40.5623 26.5785 38.4797 28.7107 38.4797 31.2893C38.4797 33.9174 40.6119 36 43.1904 36C45.8185 36 47.9012 33.8678 47.9012 31.2893C47.9012 28.7107 45.7689 26.5785 43.1904 26.5785ZM43.1904 34.0661C41.6532 34.0661 40.4136 32.8264 40.4136 31.2893C40.4136 29.7521 41.6532 28.5124 43.1904 28.5124C44.7276 28.5124 45.9673 29.7521 45.9673 31.2893C45.9673 32.8264 44.7276 34.0661 43.1904 34.0661ZM32.2813 35.9504H33.3723V26.9256H31.4384V35.157C31.4384 35.5537 31.8351 35.9504 32.2813 35.9504Z" fill="url(#paint1_linear_372_10998)"/>
</g>
<defs>
<linearGradient id="paint0_linear_372_10998" x1="0.248047" y1="30.0001" x2="59.7522" y2="30.0001" gradientUnits="userSpaceOnUse">
<stop stop-color="#FBE89E"/>
<stop offset="0.1857" stop-color="#E9D18A"/>
<stop offset="0.542" stop-color="#CBA968"/>
<stop offset="0.8259" stop-color="#B99154"/>
<stop offset="1" stop-color="#B2884C"/>
</linearGradient>
<linearGradient id="paint1_linear_372_10998" x1="13.6144" y1="30" x2="47.9084" y2="30" gradientUnits="userSpaceOnUse">
<stop stop-color="#FBE89E"/>
<stop offset="0.1857" stop-color="#E9D18A"/>
<stop offset="0.542" stop-color="#CBA968"/>
<stop offset="0.8259" stop-color="#B99154"/>
<stop offset="1" stop-color="#B2884C"/>
</linearGradient>
<clipPath id="clip0_372_10998">
<rect width="60" height="60" fill="white"/>
</clipPath>
</defs>
</svg>
