<svg width="60" height="60" viewBox="0 0 60 60" fill="none" xmlns="http://www.w3.org/2000/svg">
<g clip-path="url(#clip0_262_8829)">
<path d="M30 60C13.438 60 0 46.562 0 30C0 13.438 13.438 0 30 0C46.562 0 60 13.438 60 30C60 46.562 46.562 60 30 60Z" fill="#0F4C3B"/>
<path d="M30 0.991736C46.0165 0.991736 59.0083 13.9835 59.0083 30C59.0083 46.0165 46.0165 59.0083 30 59.0083C13.9835 59.0083 0.991736 46.0165 0.991736 30C0.991736 13.9835 13.9835 0.991736 30 0.991736ZM30 0C13.438 0 0 13.438 0 30C0 46.562 13.438 60 30 60C46.562 60 60 46.562 60 30C60 13.438 46.562 0 30 0Z" fill="url(#paint0_linear_262_8829)"/>
<path d="M37.7357 35.8017C38.3803 36.4959 38.3803 37.2893 37.7357 37.9835C37.2894 38.4298 36.7936 38.8761 36.3473 39.372C35.7026 40.0662 34.9588 40.3141 34.0167 40.2645C32.7274 40.2149 31.4878 39.7686 30.3473 39.1736C27.7688 37.9339 25.5869 36.1984 23.7026 33.967C22.3142 32.3306 21.2233 30.5951 20.4795 28.562C20.1324 27.6199 19.8845 26.6282 19.9341 25.5868C19.9836 24.9422 20.2316 24.3967 20.6779 23.9505C21.1737 23.4546 21.6696 22.9587 22.1655 22.4629C22.8101 21.8182 23.6531 21.8182 24.2977 22.4629C24.6944 22.8596 25.0911 23.2563 25.4878 23.6529C25.8845 24.0496 26.2812 24.4463 26.6779 24.843C27.3721 25.5372 27.3721 26.3306 26.6779 27.0248C26.182 27.5207 25.6861 28.0166 25.1903 28.5125C25.0415 28.6612 25.0415 28.7604 25.0911 28.9091C25.4382 29.7025 25.8845 30.3967 26.4299 31.0414C27.5208 32.3802 28.7109 33.5207 30.1985 34.4629C30.496 34.6612 30.8431 34.81 31.1903 34.9587C31.339 35.0579 31.4878 35.0083 31.5869 34.8596C32.0828 34.3637 32.5787 33.8678 33.0745 33.372C33.7192 32.7273 34.5622 32.7273 35.2068 33.372C36.0993 34.2149 36.9423 35.0083 37.7357 35.8017ZM38.4795 29.9505C36.8431 26.1819 33.9175 23.2563 30.1985 21.7191C29.901 21.5703 29.5539 21.7191 29.4051 22.0662C29.2564 22.3637 29.4051 22.7604 29.7522 22.8596C33.1737 24.2976 35.8514 26.9753 37.3886 30.4463C37.4878 30.6943 37.6861 30.7934 37.9341 30.7934C38.0332 30.7934 38.0828 30.7934 38.182 30.7439C38.4795 30.6447 38.6283 30.248 38.4795 29.9505ZM29.4547 26.1819C31.5374 27.0248 33.1737 28.6612 34.0663 30.7439C34.1655 30.9422 34.3638 31.091 34.6117 31.091C34.7109 31.091 34.7605 31.091 34.8597 31.0414C35.1572 30.8926 35.306 30.5455 35.1572 30.248C34.1159 27.8678 32.2812 26.0331 29.901 25.0414C29.6035 24.8926 29.2564 25.0414 29.1572 25.3885C29.0084 25.7356 29.1572 26.0827 29.4547 26.1819Z" fill="url(#paint1_linear_262_8829)"/>
</g>
<defs>
<linearGradient id="paint0_linear_262_8829" x1="1.44144e-05" y1="30" x2="60" y2="30" gradientUnits="userSpaceOnUse">
<stop stop-color="#FBE89E"/>
<stop offset="0.1857" stop-color="#E9D18A"/>
<stop offset="0.542" stop-color="#CBA968"/>
<stop offset="0.8259" stop-color="#B99154"/>
<stop offset="1" stop-color="#B2884C"/>
</linearGradient>
<linearGradient id="paint1_linear_262_8829" x1="19.9488" y1="30.9744" x2="38.5289" y2="30.9744" gradientUnits="userSpaceOnUse">
<stop stop-color="#FBE89E"/>
<stop offset="0.1857" stop-color="#E9D18A"/>
<stop offset="0.542" stop-color="#CBA968"/>
<stop offset="0.8259" stop-color="#B99154"/>
<stop offset="1" stop-color="#B2884C"/>
</linearGradient>
<clipPath id="clip0_262_8829">
<rect width="60" height="60" fill="white"/>
</clipPath>
</defs>
</svg>
