<svg width="14" height="20" viewBox="0 0 14 20" fill="none" xmlns="http://www.w3.org/2000/svg">
<path d="M12.9926 3.51392C11.87 1.73108 10.5963 0.611394 8.54069 0.164443C6.60543 -0.256238 4.6805 0.138173 3.02682 1.25644C1.51891 2.27637 0.481319 3.974 0.132361 5.79234C-0.401217 8.577 0.756015 10.6112 2.21407 12.8289C3.82409 15.2774 5.47055 17.6616 7.22668 20C8.86351 17.7013 12.8516 12.0656 13.6571 9.55184C14.3399 7.41933 13.9435 5.47354 12.9926 3.51392ZM9.99462 9.21424C9.37956 10.1607 8.45027 10.6456 7.39618 10.8593C6.51742 10.8849 5.71052 10.7184 4.98167 10.1816C4.22599 9.62498 3.70548 8.78929 3.5714 7.83717C3.43663 6.88079 3.6907 5.91517 4.24937 5.14375C4.87131 4.28428 5.72496 3.87957 6.73127 3.74147C7.45187 3.70242 8.19104 3.84798 8.81744 4.22854C9.64875 4.73336 10.2188 5.65353 10.433 6.61347C10.6313 7.50453 10.4904 8.45097 9.99462 9.21424Z" fill="white"/>
</svg>
