<svg width="60" height="60" viewBox="0 0 60 60" fill="none" xmlns="http://www.w3.org/2000/svg">
<g clip-path="url(#clip0_372_10949)">
<path d="M30 60C13.438 60 0 46.562 0 30C0 13.438 13.438 0 30 0C46.562 0 60 13.438 60 30C60 46.562 46.562 60 30 60Z" fill="#0F4C3B"/>
<path d="M30 0.991736C46.0165 0.991736 59.0083 13.9835 59.0083 30C59.0083 46.0165 46.0165 59.0083 30 59.0083C13.9835 59.0083 0.991736 46.0165 0.991736 30C0.991736 13.9835 13.9835 0.991736 30 0.991736ZM30 0C13.438 0 0 13.438 0 30C0 46.562 13.438 60 30 60C46.562 60 60 46.562 60 30C60 13.438 46.562 0 30 0Z" fill="url(#paint0_linear_372_10949)"/>
<path d="M27.8679 27.57C27.8679 29.0576 27.8679 30.5452 27.8679 32.0328C27.8183 32.0328 27.7191 32.0328 27.6696 31.9832C25.2894 31.3882 23.0084 32.8758 22.6117 35.3055C22.2646 37.4378 23.8514 39.57 25.9836 39.8675C28.1654 40.1651 30.0993 38.8262 30.5456 36.694C30.5952 36.446 30.6448 36.1485 30.6448 35.851C30.6448 29.7022 30.6448 23.5039 30.6448 17.3551C30.6448 17.256 30.6448 17.1568 30.6448 17.0576C32.1324 17.0576 33.62 17.0576 35.1076 17.0576C35.1572 18.9419 35.8018 20.5287 37.1406 21.8675C38.4795 23.2064 40.0662 23.851 42.0001 23.9006C42.0001 25.3882 42.0001 26.8262 42.0001 28.3138C40.7605 28.3138 39.5704 28.1155 38.3803 27.7188C37.2398 27.3221 36.1489 26.7766 35.1076 25.9832C35.1076 26.132 35.1076 26.1816 35.1076 26.2808C35.1076 29.4543 35.1076 32.6279 35.1076 35.8014C35.1076 40.0163 32.182 43.4874 28.0167 44.1816C23.5043 44.975 19.1902 42.0989 18.1985 37.5865C17.2067 33.0741 20.2315 28.5122 24.7439 27.57C25.7357 27.3717 26.7274 27.3221 27.7191 27.4708C27.7687 27.57 27.8183 27.57 27.8679 27.57Z" fill="url(#paint1_linear_372_10949)"/>
</g>
<defs>
<linearGradient id="paint0_linear_372_10949" x1="-4.85745e-06" y1="30" x2="60" y2="30" gradientUnits="userSpaceOnUse">
<stop stop-color="#FBE89E"/>
<stop offset="0.1857" stop-color="#E9D18A"/>
<stop offset="0.542" stop-color="#CBA968"/>
<stop offset="0.8259" stop-color="#B99154"/>
<stop offset="1" stop-color="#B2884C"/>
</linearGradient>
<linearGradient id="paint1_linear_372_10949" x1="18.0376" y1="30.735" x2="41.9626" y2="30.735" gradientUnits="userSpaceOnUse">
<stop stop-color="#FBE89E"/>
<stop offset="0.1857" stop-color="#E9D18A"/>
<stop offset="0.542" stop-color="#CBA968"/>
<stop offset="0.8259" stop-color="#B99154"/>
<stop offset="1" stop-color="#B2884C"/>
</linearGradient>
<clipPath id="clip0_372_10949">
<rect width="60" height="60" fill="white"/>
</clipPath>
</defs>
</svg>
