<?xml version="1.0" encoding="utf-8"?>
<!-- Generator: Adobe Illustrator 19.0.0, SVG Export Plug-In . SVG Version: 6.00 Build 0)  -->
<svg version="1.1" id="Layer_1" xmlns="http://www.w3.org/2000/svg" xmlns:xlink="http://www.w3.org/1999/xlink" x="0px" y="0px"
	 width="24px" height="24px" viewBox="-293 385 24 24" style="enable-background:new -293 385 24 24;" xml:space="preserve">
<style type="text/css">
	.st0{fill:#fff;}
</style>
<g id="LÃ_xB9_i">
	<path id="Vector" class="st0" d="M-282.2,392.3c-0.1-0.1-0.3-0.2-0.5-0.2c-0.2,0-0.4,0.1-0.5,0.2c-0.3,0.3-0.3,0.7,0,1.1l3.4,3.4
		c0,0,0.1,0.1,0.1,0.2s0,0.2-0.1,0.2l-3.4,3.4c-0.3,0.3-0.3,0.7,0,1.1c0.1,0.1,0.3,0.2,0.5,0.2c0.2,0,0.4-0.1,0.5-0.2l4.2-4.2
		c0.1-0.1,0.2-0.3,0.2-0.5c0-0.2-0.1-0.4-0.2-0.5L-282.2,392.3L-282.2,392.3z"/>
	<path id="Vector_2" class="st0" d="M-281,385c-6.6,0-12,5.4-12,12c0,6.6,5.4,12,12,12s12-5.4,12-12C-269,390.4-274.4,385-281,385
		L-281,385z M-270.5,397c0,5.8-4.7,10.5-10.5,10.5s-10.5-4.7-10.5-10.5c0-5.8,4.7-10.5,10.5-10.5
		C-275.2,386.5-270.5,391.2-270.5,397z"/>
</g>
</svg>
