<svg width="10" height="10" viewBox="0 0 10 10" fill="none" xmlns="http://www.w3.org/2000/svg">
<path d="M8.87808 3.13685L8.87816 3.13687C9.57151 3.33011 9.86757 4.22149 9.39661 4.82437L9.39647 4.82455L8.55376 5.90466L8.55306 5.90556C8.28506 6.25121 8.14838 6.68545 8.16999 7.1264L8.17001 7.12668L8.23903 8.51412L8.23904 8.51427C8.27827 9.29662 7.53992 9.81632 6.88245 9.55528L6.8821 9.55515L5.63104 9.05987C5.22555 8.89926 4.77632 8.89971 4.36939 9.05945L4.36838 9.05985L3.11725 9.55515L3.11691 9.55528C2.45943 9.81632 1.72108 9.29662 1.76031 8.51427L1.76032 8.51412L1.82935 7.12668L1.82936 7.1264C1.85098 6.68545 1.71429 6.25121 1.4463 5.90556L1.4456 5.90467L0.603158 4.8249C0.603148 4.82489 0.603137 4.82487 0.603127 4.82486C0.131929 4.21938 0.430068 3.33022 1.12127 3.13685C1.12128 3.13684 1.12129 3.13684 1.1213 3.13684C1.12136 3.13682 1.12141 3.13681 1.12147 3.13679L2.41554 2.77581L2.4166 2.77552C2.83391 2.65779 3.19577 2.38833 3.42937 2.01379C3.42949 2.01359 3.42962 2.01339 3.42974 2.01319L4.15962 0.850592L4.15987 0.850197C4.55654 0.216601 5.43994 0.216601 5.83661 0.850197L5.9468 1.0262H5.94998L6.56961 2.01319C6.56971 2.01335 6.56981 2.01352 6.56991 2.01368C6.80218 2.38614 7.16349 2.66077 7.58472 2.77607C7.58509 2.77616 7.58545 2.77626 7.58581 2.77636L8.87808 3.13685Z" stroke="#00AEEF" stroke-width="0.75"/>
</svg>
