<svg width="31" height="30" viewBox="0 0 31 30" fill="none" xmlns="http://www.w3.org/2000/svg">
<g id="INTA G-12" clip-path="url(#clip0_500_7319)">
<g id="Group">
<path id="Vector" d="M15.1006 30C6.81959 30 0.100586 23.281 0.100586 15C0.100586 6.71901 6.81959 0 15.1006 0C23.3816 0 30.1006 6.71901 30.1006 15C30.1006 23.281 23.3816 30 15.1006 30Z" fill="url(#paint0_linear_500_7319)"/>
</g>
<g id="Group_2">
<path id="Vector_2" d="M17.6791 8.60333H12.522C10.4146 8.60333 8.70386 10.3141 8.70386 12.4215V17.5785C8.70386 19.686 10.4146 21.3967 12.522 21.3967H17.6791C19.7865 21.3967 21.4972 19.686 21.4972 17.5785V12.4215C21.4972 10.3141 19.7865 8.60333 17.6791 8.60333ZM20.208 17.5785C20.208 18.967 19.0675 20.1075 17.6791 20.1075H12.522C11.1336 20.1075 9.99311 18.967 9.99311 17.5785V12.4215C9.99311 11.0331 11.1336 9.89259 12.522 9.89259H17.6791C19.0675 9.89259 20.208 11.0331 20.208 12.4215V17.5785ZM15.1006 11.7025C13.2658 11.7025 11.803 13.1653 11.803 15C11.803 16.8347 13.2658 18.2975 15.1006 18.2975C16.9353 18.2975 18.3981 16.8347 18.3981 15C18.3981 13.1653 16.9353 11.7025 15.1006 11.7025ZM15.1006 17.0083C13.9848 17.0083 13.0923 16.1157 13.0923 15C13.0923 13.8843 13.9848 12.9918 15.1006 12.9918C16.2163 12.9918 17.1088 13.8843 17.1088 15C17.1088 16.1157 16.2163 17.0083 15.1006 17.0083ZM19.2163 11.7273C19.2163 12.1736 18.8444 12.4959 18.4477 12.4959C18.0014 12.4959 17.6791 12.124 17.6791 11.7273C17.6791 11.281 18.051 10.9587 18.4477 10.9587C18.8444 10.9091 19.2163 11.281 19.2163 11.7273Z" fill="#0F4C3B"/>
</g>
<g id="Group_3">
<path id="Vector_3" d="M15.1006 0.495868C23.1089 0.495868 29.6047 6.99174 29.6047 15C29.6047 23.0083 23.1089 29.5041 15.1006 29.5041C7.09232 29.5041 0.596454 23.0083 0.596454 15C0.596454 6.99174 7.09232 0.495868 15.1006 0.495868ZM15.1006 0C6.81959 0 0.100586 6.71901 0.100586 15C0.100586 23.281 6.81959 30 15.1006 30C23.3816 30 30.1006 23.281 30.1006 15C30.1006 6.71901 23.3816 0 15.1006 0Z" fill="url(#paint1_linear_500_7319)"/>
</g>
</g>
<defs>
<linearGradient id="paint0_linear_500_7319" x1="0.100586" y1="15" x2="30.1006" y2="15" gradientUnits="userSpaceOnUse">
<stop stop-color="#FBE89E"/>
<stop offset="0.1857" stop-color="#E9D18A"/>
<stop offset="0.542" stop-color="#CBA968"/>
<stop offset="0.8259" stop-color="#B99154"/>
<stop offset="1" stop-color="#B2884C"/>
</linearGradient>
<linearGradient id="paint1_linear_500_7319" x1="0.100586" y1="15" x2="30.1006" y2="15" gradientUnits="userSpaceOnUse">
<stop stop-color="#B2884C"/>
<stop offset="0.1741" stop-color="#B99154"/>
<stop offset="0.458" stop-color="#CBA968"/>
<stop offset="0.8143" stop-color="#E9D18A"/>
<stop offset="1" stop-color="#FBE89E"/>
</linearGradient>
<clipPath id="clip0_500_7319">
<rect width="30" height="30" fill="white" transform="translate(0.100586)"/>
</clipPath>
</defs>
</svg>
