<svg width="15" height="16" viewBox="0 0 15 16" fill="none" xmlns="http://www.w3.org/2000/svg">
<path d="M0.944966 6.85252C0.511905 5.8632 -0.233319 4.02177 0.0710946 2.91635C0.230121 2.33927 2.18804 0.547201 2.75967 0.176866C2.87932 0.0995701 3.11089 -0.0379476 3.25597 0.00985761C3.60099 0.123162 3.89238 0.800815 4.08427 1.11621C4.44448 1.74605 5.61595 3.48256 5.43026 4.13259C5.20056 4.93721 3.60533 5.22062 4.06815 6.27048C4.80004 7.93155 7.36555 10.5078 8.95644 11.2761C9.43847 10.7642 9.86069 10.2591 10.5231 9.97445C11.2349 10.2672 13.7933 12.1927 14.1339 12.8257C14.1429 13.0954 14.0037 13.2631 13.8286 13.454C13.0648 14.2872 11.849 15.2563 10.6713 15.2759C8.47626 15.3125 5.81775 13.075 4.3025 11.5812C2.93791 10.2361 1.77885 8.57382 0.944966 6.85283V6.85252Z" fill="white"/>
</svg>
