<svg width="36" height="37" viewBox="0 0 36 37" fill="none" xmlns="http://www.w3.org/2000/svg">
<g clip-path="url(#clip0_731_3155)">
<path d="M18 36.9629C8.06281 36.9629 0 28.9001 0 18.9629C0 9.0257 8.06281 0.962891 18 0.962891C27.9372 0.962891 36 9.0257 36 18.9629C36 28.9001 27.9372 36.9629 18 36.9629Z" fill="#F4F4F4"/>
<path d="M16.4529 17.1185C16.4529 18.1896 16.4529 19.2904 16.4529 20.3615C16.4231 20.3615 16.3339 20.3615 16.3041 20.3317C14.5785 19.8854 12.9124 20.9862 12.6446 22.7416C12.4066 24.2887 13.5372 25.8358 15.0843 26.0441C16.6611 26.2524 18.0595 25.3003 18.3868 23.7532C18.4165 23.5747 18.4463 23.3664 18.4463 23.1284C18.4463 18.6656 18.4463 14.173 18.4463 9.71022C18.4463 9.65071 18.4463 9.56146 18.4463 9.50195C19.5173 9.50195 20.6182 9.50195 21.6892 9.50195C21.719 10.8705 22.195 12.0309 23.1768 12.9829C24.1587 13.9648 25.2892 14.411 26.7173 14.4705C26.7173 15.5416 26.7173 16.5829 26.7173 17.6838C25.8248 17.6838 24.962 17.535 24.0992 17.2375C23.2661 16.94 22.4925 16.5532 21.719 15.9879C21.719 16.1069 21.719 16.1367 21.719 16.1962C21.719 18.4871 21.719 20.8077 21.719 23.0986C21.719 26.1631 19.6066 28.692 16.5719 29.1681C13.2992 29.7334 10.1752 27.6507 9.43138 24.378C8.71733 21.1053 10.919 17.8028 14.1917 17.1185C14.9058 16.9697 15.6198 16.94 16.3636 17.059C16.3934 17.1185 16.4231 17.1185 16.4529 17.1185Z" fill="#005298"/>
<path d="M18 1.55793C27.6099 1.55793 35.405 9.35297 35.405 18.9629C35.405 28.5728 27.6099 36.3679 18 36.3679C8.39008 36.3679 0.595041 28.5728 0.595041 18.9629C0.595041 9.35297 8.39008 1.55793 18 1.55793ZM18 0.962891C8.06281 0.962891 0 9.0257 0 18.9629C0 28.9001 8.06281 36.9629 18 36.9629C27.9372 36.9629 36 28.9001 36 18.9629C36 9.0257 27.9372 0.962891 18 0.962891Z" fill="#F4F4F4"/>
</g>
<defs>
<clipPath id="clip0_731_3155">
<rect width="36" height="36" fill="white" transform="translate(0 0.962891)"/>
</clipPath>
</defs>
</svg>
