<svg width="17" height="17" viewBox="0 0 17 17" fill="none" xmlns="http://www.w3.org/2000/svg">
<path d="M4.60008 11.0804L4.92008 10.7604C5.00008 10.6804 5.05008 10.5604 5.05008 10.4404C5.05008 10.1904 4.85008 9.99036 4.60008 9.99036C4.48008 9.99036 4.37008 10.0404 4.28008 10.1204L3.96008 10.4404C3.88008 10.5304 3.83008 10.6404 3.83008 10.7604C3.83008 11.0104 4.03008 11.2104 4.28008 11.2104C4.40008 11.2104 4.51008 11.1604 4.60008 11.0804Z" fill="url(#paint0_linear_500_1349)"/>
<path d="M6.54988 11.9304C6.42988 11.9304 6.31988 11.9804 6.22988 12.0604L5.25988 13.0304C5.17988 13.1104 5.12988 13.2304 5.12988 13.3504C5.12988 13.6004 5.32988 13.8004 5.57988 13.8004C5.69988 13.8004 5.80989 13.7504 5.89989 13.6704L6.86988 12.7004C6.94988 12.6204 6.99989 12.5004 6.99989 12.3804C6.99989 12.1304 6.79988 11.9304 6.54988 11.9304Z" fill="url(#paint1_linear_500_1349)"/>
<path d="M15.13 1.27041C15.13 1.27041 15.12 1.27041 15.11 1.27041L1.52 7.10041C1.52 7.10041 1.51999 7.10041 1.50999 7.10041C1.50999 7.10041 1.49 7.10041 1.48 7.12041C1.34 7.20041 1.25 7.35041 1.25 7.51041C1.25 7.69041 1.36 7.85041 1.53 7.92041C1.53 7.92041 1.55 7.92041 1.56 7.93041L6.87 10.1104L9.05 15.4204C9.05 15.4204 9.05 15.4404 9.07 15.4504C9.14 15.6204 9.3 15.7304 9.48 15.7304C9.65 15.7304 9.8 15.6304 9.88 15.4804C9.88 15.4804 9.88 15.4704 9.89 15.4604L15.72 1.87041C15.72 1.87041 15.72 1.85041 15.72 1.84041C15.74 1.79041 15.75 1.73041 15.75 1.68041C15.75 1.38041 15.42 1.14041 15.13 1.27041ZM13.97 3.65041L9.47 14.1404L7.72 9.89041L13.96 3.65041H13.97ZM13.33 3.01041L7.09 9.25041L2.84 7.50041L13.33 3.00041V3.01041Z" fill="url(#paint2_linear_500_1349)"/>
<path d="M6.68004 10.7604C6.68004 10.5104 6.48003 10.3104 6.23003 10.3104C6.11003 10.3104 6.00003 10.3604 5.91003 10.4404L2.67004 13.6804C2.58004 13.7604 2.54004 13.8804 2.54004 14.0004C2.54004 14.2504 2.74004 14.4504 2.99004 14.4504C3.11004 14.4504 3.22004 14.4004 3.31004 14.3204L6.55003 11.0804C6.64003 11.0004 6.68004 10.8804 6.68004 10.7604Z" fill="url(#paint3_linear_500_1349)"/>
<defs>
<linearGradient id="paint0_linear_500_1349" x1="5.05008" y1="10.6004" x2="3.83008" y2="10.6004" gradientUnits="userSpaceOnUse">
<stop stop-color="#B38A4D"/>
<stop offset="1" stop-color="#FCE99F"/>
</linearGradient>
<linearGradient id="paint1_linear_500_1349" x1="6.99989" y1="12.8654" x2="5.12988" y2="12.8654" gradientUnits="userSpaceOnUse">
<stop stop-color="#B38A4D"/>
<stop offset="1" stop-color="#FCE99F"/>
</linearGradient>
<linearGradient id="paint2_linear_500_1349" x1="15.75" y1="8.48233" x2="1.25" y2="8.48233" gradientUnits="userSpaceOnUse">
<stop stop-color="#B38A4D"/>
<stop offset="1" stop-color="#FCE99F"/>
</linearGradient>
<linearGradient id="paint3_linear_500_1349" x1="6.68004" y1="12.3804" x2="2.54004" y2="12.3804" gradientUnits="userSpaceOnUse">
<stop stop-color="#B38A4D"/>
<stop offset="1" stop-color="#FCE99F"/>
</linearGradient>
</defs>
</svg>
