<svg width="6" height="10" viewBox="0 0 6 10" fill="none" xmlns="http://www.w3.org/2000/svg">
<path d="M1.34355 0.236086C1.2035 0.101179 1.01094 0.0168624 0.800876 -4.54522e-07C0.59081 -4.72886e-07 0.380745 0.0843148 0.240702 0.219222C-0.0568916 0.5059 -0.0568916 0.978076 0.240701 1.29848L3.86433 4.78921C3.86433 4.78921 3.95186 4.92411 3.95186 5.00843C3.95186 5.09275 3.91685 5.17707 3.84683 5.22766L0.223195 8.71838C-0.0743984 9.00506 -0.0743985 9.47723 0.223195 9.79764C0.380744 9.93255 0.590809 10 0.783369 10C0.975929 10 1.186 9.93255 1.34355 9.78078L5.77243 5.51433C5.91247 5.37943 6 5.19393 6 4.99157C6 4.78921 5.91247 4.60371 5.77243 4.4688L1.34355 0.20236L1.34355 0.236086Z" fill="#FFD600"/>
</svg>
