<svg width="24" height="24" viewBox="0 0 24 24" fill="none" xmlns="http://www.w3.org/2000/svg">
<g clip-path="url(#clip0_232_7805)">
<path d="M24 12C24 18.6207 18.6244 24 12.0083 24C5.39214 24 0 18.6207 0 12C0 5.37931 5.39214 0 12.0083 0C14.8863 0 17.5989 1.02621 19.7657 2.9131L18.7733 3.98897C16.8877 2.35035 14.5224 1.48966 12.0083 1.48966C6.20262 1.48966 1.48863 6.2069 1.48863 12C1.48863 17.7931 6.20262 22.5269 12.0083 22.5269C17.8139 22.5269 22.5114 17.8097 22.5114 12C22.5114 11.0234 22.379 10.0469 22.0979 9.10345L23.3218 8.06069C23.7684 9.31862 24 10.6593 24 12Z" fill="#224B3C"/>
<path d="M23.9994 3.95589C23.9994 4.13796 23.9332 4.30347 23.8175 4.45244C23.8009 4.45244 23.8009 4.46899 23.8009 4.46899L23.3378 4.94899L22.2792 6.05796C22.2792 6.05796 22.2627 6.07451 22.2627 6.09106L21.4853 6.88554C21.4853 6.88554 21.4687 6.90209 21.4687 6.91865L20.4267 8.01106L12.537 16.2704L12.5204 16.2869C12.3716 16.4193 12.1896 16.5021 12.0077 16.5021C11.8092 16.5021 11.6272 16.4193 11.4784 16.2869L6.11932 10.9242C5.97046 10.7752 5.9043 10.5931 5.9043 10.3945C5.9043 9.98072 6.2351 9.64968 6.64861 9.64968C6.8471 9.64968 7.02904 9.73244 7.1779 9.86485L11.9911 14.698L19.1531 7.18347L20.559 5.71037C20.559 5.71037 20.559 5.67727 20.5921 5.67727L21.3364 4.88278C21.3364 4.88278 21.3695 4.86623 21.3695 4.84968L22.4612 3.70761L22.7423 3.42623C22.8912 3.29382 23.0731 3.21106 23.2551 3.21106C23.6686 3.21106 23.9994 3.54209 23.9994 3.95589Z" fill="#224B3C"/>
<path d="M23.339 4.94902L22.2804 6.05799C22.2804 6.05799 22.2639 6.07454 22.2639 6.09109L21.4865 6.88557C21.4865 6.88557 21.4699 6.90212 21.4699 6.91868L20.4279 8.01109C19.9152 7.89523 19.4686 7.5973 19.1543 7.1835L20.5602 5.7104C20.5602 5.7104 20.5602 5.6773 20.5933 5.6773L21.3376 4.88281C21.3376 4.88281 21.3707 4.86626 21.3707 4.84971L22.4624 3.70764C22.8759 4.00557 23.1901 4.45247 23.339 4.94902Z" fill="#224B3C"/>
</g>
<defs>
<clipPath id="clip0_232_7805">
<rect width="24" height="24" fill="white"/>
</clipPath>
</defs>
</svg>
