<svg width="36" height="37" viewBox="0 0 36 37" fill="none" xmlns="http://www.w3.org/2000/svg">
<g clip-path="url(#clip0_731_3140)">
<path d="M18 36.9629C8.06281 36.9629 0 28.9001 0 18.9629C0 9.0257 8.06281 0.962891 18 0.962891C27.9372 0.962891 36 9.0257 36 18.9629C36 28.9001 27.9372 36.9629 18 36.9629Z" fill="#F4F4F4"/>
<path d="M25.6759 15.0654C25.4974 14.3811 24.9619 13.8456 24.2776 13.6373C23.028 13.3101 17.9999 13.3101 17.9999 13.3101C17.9999 13.3101 13.0015 13.3101 11.7222 13.6373C11.0379 13.8158 10.5024 14.3514 10.3239 15.0654C9.99658 16.315 9.99658 18.963 9.99658 18.963C9.99658 18.963 9.99658 21.5811 10.3239 22.8605C10.5024 23.5448 11.0379 24.0803 11.7222 24.2886C12.9718 24.6158 17.9999 24.6158 17.9999 24.6158C17.9999 24.6158 22.9982 24.6158 24.2776 24.2886C24.9619 24.1101 25.4974 23.5745 25.6759 22.8605C26.0032 21.6109 26.0032 18.963 26.0032 18.963C26.0032 18.963 26.0329 16.3448 25.6759 15.0654ZM16.3338 21.3431V16.5828L20.4991 18.963L16.3338 21.3431Z" fill="#005298"/>
<path d="M18 1.55793C27.6099 1.55793 35.405 9.35297 35.405 18.9629C35.405 28.5728 27.6099 36.3679 18 36.3679C8.39008 36.3679 0.595041 28.5728 0.595041 18.9629C0.595041 9.35297 8.39008 1.55793 18 1.55793ZM18 0.962891C8.06281 0.962891 0 9.0257 0 18.9629C0 28.9001 8.06281 36.9629 18 36.9629C27.9372 36.9629 36 28.9001 36 18.9629C36 9.0257 27.9372 0.962891 18 0.962891Z" fill="#F4F4F4"/>
</g>
<defs>
<clipPath id="clip0_731_3140">
<rect width="36" height="36" fill="white" transform="translate(0 0.962891)"/>
</clipPath>
</defs>
</svg>
