<svg width="60" height="60" viewBox="0 0 60 60" fill="none" xmlns="http://www.w3.org/2000/svg">
<g clip-path="url(#clip0_340_9411)">
<path d="M30 60C13.438 60 0 46.562 0 30C0 13.438 13.438 0 30 0C46.562 0 60 13.438 60 30C60 46.562 46.562 60 30 60Z" fill="#0F4C3B"/>
<path d="M30 0.991736C46.0165 0.991736 59.0083 13.9835 59.0083 30C59.0083 46.0165 46.0165 59.0083 30 59.0083C13.9835 59.0083 0.991736 46.0165 0.991736 30C0.991736 13.9835 13.9835 0.991736 30 0.991736ZM30 0C13.438 0 0 13.438 0 30C0 46.562 13.438 60 30 60C46.562 60 60 46.562 60 30C60 13.438 46.562 0 30 0Z" fill="url(#paint0_linear_340_9411)"/>
<path d="M40.4136 25.7852V34.2149C40.4136 34.8595 40.2152 35.4546 39.9177 35.9504L33.2731 29.4546L39.7194 23.8513C40.1656 24.3967 40.4136 25.0414 40.4136 25.7852ZM38.7772 23.0083C38.2813 22.7108 37.7359 22.562 37.1409 22.562H22.8599C22.2152 22.562 21.6202 22.7604 21.0747 23.1075L29.8516 30.7438L38.7772 23.0083ZM30.2483 32.0827C30.1491 32.1818 29.9508 32.2314 29.802 32.2314C29.6532 32.2314 29.5045 32.1818 29.3557 32.0827L27.4714 30.4463L21.0747 36.9422C21.5706 37.2893 22.2152 37.4876 22.8599 37.4876H37.1409C37.8351 37.4876 38.4797 37.2893 38.9756 36.8926L32.3309 30.2975L30.2483 32.0827ZM20.1822 23.9504C19.8351 24.4463 19.6367 25.0909 19.6367 25.7356V34.1653C19.6367 34.8099 19.8351 35.4546 20.1822 35.9504L26.5789 29.5537L20.1822 23.9504Z" fill="url(#paint1_linear_340_9411)"/>
</g>
<defs>
<linearGradient id="paint0_linear_340_9411" x1="-4.85745e-06" y1="30" x2="60" y2="30" gradientUnits="userSpaceOnUse">
<stop stop-color="#FBE89E"/>
<stop offset="0.1857" stop-color="#E9D18A"/>
<stop offset="0.542" stop-color="#CBA968"/>
<stop offset="0.8259" stop-color="#B99154"/>
<stop offset="1" stop-color="#B2884C"/>
</linearGradient>
<linearGradient id="paint1_linear_340_9411" x1="19.6069" y1="30" x2="40.3938" y2="30" gradientUnits="userSpaceOnUse">
<stop stop-color="#FBE89E"/>
<stop offset="0.1857" stop-color="#E9D18A"/>
<stop offset="0.542" stop-color="#CBA968"/>
<stop offset="0.8259" stop-color="#B99154"/>
<stop offset="1" stop-color="#B2884C"/>
</linearGradient>
<clipPath id="clip0_340_9411">
<rect width="60" height="60" fill="white"/>
</clipPath>
</defs>
</svg>
