<svg width="23" height="23" viewBox="0 0 23 23" fill="none" xmlns="http://www.w3.org/2000/svg">
<g clip-path="url(#clip0_19_540)">
<path d="M22.7666 9.18704C22.9196 9.93551 23 10.7106 23 11.5043C23 12.298 22.9218 13.052 22.7727 13.791H14.1052V22.7122C13.4088 22.8735 12.6881 22.9714 11.9497 23H11.0503C10.2974 22.971 9.56309 22.8697 8.85399 22.7025V13.791H0.22729C0.078179 13.052 0 12.2872 0 11.5043C0 10.7213 0.0803751 9.93551 0.233439 9.18704H8.85399V0.306022C9.70364 0.105889 10.5895 0 11.5 0C12.4105 0 13.268 0.102374 14.1052 0.296356V9.18704H22.7666Z" fill="#CE1124"/>
<path d="M7.1236 0.862267V6.51368L2.65576 4.15052C3.84602 2.71949 5.37666 1.58196 7.1236 0.862267Z" fill="#00247D"/>
<path d="M4.31433 7.63628H0.819996L0.69043 7.56839C0.876654 7.05718 1.09801 6.56267 1.35166 6.08815L4.31433 7.63628Z" fill="#CE1124"/>
<path d="M22.1801 15.3347L22.3209 15.4085C22.1362 15.9204 21.9161 16.4156 21.6638 16.891L18.6855 15.3347H22.1801Z" fill="#CE1124"/>
<path d="M7.12343 16.496V22.1463C5.37692 21.4268 3.84628 20.2895 2.65625 18.8587L7.12343 16.496Z" fill="#00247D"/>
<path d="M7.13765 15.3343V15.6458L2.17526 18.239C1.86034 17.8036 1.5753 17.3451 1.32275 16.8666L4.23931 15.3343H7.13765Z" fill="#CE1124"/>
<path d="M20.3432 4.15009L15.8765 6.51259V0.862488C17.623 1.58196 19.1534 2.71927 20.3432 4.15009Z" fill="#00247D"/>
<path d="M21.6863 6.15977L18.8865 7.64441H15.8892V7.38474L20.8434 4.79596C21.1548 5.22896 21.4366 5.68459 21.6863 6.15977Z" fill="#CE1124"/>
<path d="M15.8765 22.1461V16.494L20.3443 18.8572C19.1545 20.2884 17.6234 21.4264 15.8765 22.1461Z" fill="#00247D"/>
</g>
<defs>
<clipPath id="clip0_19_540">
<rect width="23" height="23" fill="white"/>
</clipPath>
</defs>
</svg>
