<svg width="7" height="10" viewBox="0 0 7 10" fill="none" xmlns="http://www.w3.org/2000/svg">
<path d="M5.6545 9.76391C5.79454 9.89882 5.9871 9.98314 6.19717 10C6.40724 10 6.6173 9.91569 6.75734 9.78078C7.05494 9.4941 7.05494 9.02192 6.75734 8.70152L3.13371 5.21079C3.13371 5.21079 3.04619 5.07589 3.04619 4.99157C3.04619 4.90725 3.0812 4.82293 3.15122 4.77234L6.77485 1.28162C7.07245 0.994942 7.07245 0.522767 6.77485 0.202362C6.6173 0.0674544 6.40724 9.40027e-07 6.21468 9.06563e-07C6.02212 8.73099e-07 5.81205 0.0674539 5.6545 0.219225L1.22562 4.48567C1.08557 4.62057 0.998046 4.80607 0.998046 5.00843C0.998046 5.21079 1.08557 5.39629 1.22562 5.5312L5.6545 9.79764L5.6545 9.76391Z" fill="#FFD600"/>
</svg>
