<svg width="40" height="40" viewBox="0 0 40 40" fill="none" xmlns="http://www.w3.org/2000/svg">
<g id="Zalo a-01" clip-path="url(#clip0_513_462)">
<g id="Group">
<path id="Vector" d="M20 39.8349C9.05784 39.8349 0.165283 30.9424 0.165283 20.0002C0.165283 9.05809 9.05784 0.165527 20 0.165527C30.9421 0.165527 39.8347 9.05809 39.8347 20.0002C39.8347 30.9424 30.9421 39.8349 20 39.8349Z" fill="#0F4C3B"/>
<path id="Vector_2" d="M20 0.826684C30.5785 0.826684 39.1735 9.42172 39.1735 20.0002C39.1735 30.5787 30.5785 39.1738 20 39.1738C9.42148 39.1738 0.82644 30.5787 0.82644 20.0002C0.82644 9.42172 9.42148 0.826684 20 0.826684ZM20 0.165527C9.05784 0.165527 0.165283 9.05809 0.165283 20.0002C0.165283 30.9424 9.05784 39.8349 20 39.8349C30.9421 39.8349 39.8347 30.9424 39.8347 20.0002C39.8347 9.05809 30.9421 0.165527 20 0.165527Z" fill="url(#paint0_linear_513_462)"/>
</g>
<path id="Vector_3" d="M15.6693 16H9.25611V17.3884H13.7189L9.32223 22.8099C9.18999 23.0083 9.09082 23.2066 9.09082 23.6364V24H15.1404C15.4379 24 15.7024 23.7355 15.7024 23.438V22.7107H11.0082L15.1404 17.5537C15.2065 17.4876 15.3057 17.3554 15.3718 17.2893L15.4049 17.2562C15.6363 16.8926 15.7024 16.595 15.7024 16.2314V16H15.6693ZM23.8016 23.9669H24.7272V16H23.3388V23.5041C23.3718 23.7355 23.5702 23.9669 23.8016 23.9669ZM19.1073 17.7521C17.3883 17.7521 15.9999 19.1405 15.9999 20.8595C15.9999 22.5785 17.3883 23.9669 19.1073 23.9669C20.8264 23.9669 22.2148 22.5785 22.2148 20.8595C22.2478 19.1736 20.8594 17.7521 19.1073 17.7521ZM19.1073 22.7107C18.0826 22.7107 17.2561 21.8843 17.2561 20.8595C17.2561 19.8347 18.0826 19.0083 19.1073 19.0083C20.1321 19.0083 20.9586 19.8347 20.9586 20.8595C20.9586 21.8843 20.1321 22.7107 19.1073 22.7107ZM28.7933 17.719C27.0412 17.719 25.6528 19.1405 25.6528 20.8595C25.6528 22.6116 27.0743 24 28.7933 24C30.5454 24 31.9338 22.5785 31.9338 20.8595C31.9338 19.1405 30.5123 17.719 28.7933 17.719ZM28.7933 22.7107C27.7685 22.7107 26.9421 21.8843 26.9421 20.8595C26.9421 19.8347 27.7685 19.0083 28.7933 19.0083C29.8181 19.0083 30.6445 19.8347 30.6445 20.8595C30.6445 21.8843 29.8181 22.7107 28.7933 22.7107ZM21.5206 23.9669H22.2478V17.9504H20.9586V23.438C20.9586 23.7025 21.2231 23.9669 21.5206 23.9669Z" fill="url(#paint1_linear_513_462)"/>
</g>
<defs>
<linearGradient id="paint0_linear_513_462" x1="0.165283" y1="20.0002" x2="39.8347" y2="20.0002" gradientUnits="userSpaceOnUse">
<stop stop-color="#FBE89E"/>
<stop offset="0.1857" stop-color="#E9D18A"/>
<stop offset="0.542" stop-color="#CBA968"/>
<stop offset="0.8259" stop-color="#B99154"/>
<stop offset="1" stop-color="#B2884C"/>
</linearGradient>
<linearGradient id="paint1_linear_513_462" x1="9.07594" y1="20" x2="31.9386" y2="20" gradientUnits="userSpaceOnUse">
<stop stop-color="#FBE89E"/>
<stop offset="0.1857" stop-color="#E9D18A"/>
<stop offset="0.542" stop-color="#CBA968"/>
<stop offset="0.8259" stop-color="#B99154"/>
<stop offset="1" stop-color="#B2884C"/>
</linearGradient>
<clipPath id="clip0_513_462">
<rect width="40" height="40" fill="white"/>
</clipPath>
</defs>
</svg>
