<svg width="12" height="12" viewBox="0 0 12 12" fill="none" xmlns="http://www.w3.org/2000/svg">
<path d="M7.3888 0.781445L8.26545 2.17784C8.48634 2.53231 8.82803 2.79011 9.22149 2.89752L10.7746 3.33076C11.9308 3.65301 12.383 5.10311 11.6306 6.06627L10.6193 7.36241C10.3639 7.69181 10.2327 8.10715 10.2535 8.52965L10.3363 10.1946C10.3984 11.4334 9.21113 12.3286 8.09288 11.8846L6.59153 11.2902C6.21187 11.1398 5.7908 11.1398 5.4077 11.2902L3.90634 11.8846C2.78809 12.3286 1.60082 11.4334 1.66294 10.1946L1.74577 8.52965C1.76648 8.10715 1.63533 7.69181 1.37993 7.36241L0.36867 6.06627C-0.383733 5.09953 0.0718507 3.65301 1.22461 3.33076L2.77774 2.89752C3.1712 2.78653 3.51289 2.53231 3.73378 2.17784L4.61043 0.781445C5.26274 -0.260482 6.73303 -0.260482 7.38535 0.781445H7.3888Z" fill="#00AEEF"/>
</svg>
