<svg width="16" height="12" viewBox="0 0 16 12" fill="none" xmlns="http://www.w3.org/2000/svg">
<path d="M0.0946693 1.09912C0.853223 1.43065 1.7708 2.33678 2.43047 2.86357C3.28543 3.54588 4.15217 4.20801 5.0279 4.863C4.19309 5.78807 3.28915 6.6675 2.43016 7.57238C1.61333 8.42015 0.806414 9.27536 0.0100411 10.1421C-0.0107284 8.47447 0.00632123 6.80532 0.0115911 5.13773C0.015621 3.79329 -0.0141383 2.44046 0.0949793 1.09943L0.0946693 1.09912Z" fill="white"/>
<path d="M15.7029 0.913885C15.7454 0.941202 15.7504 0.941823 15.795 0.992732C15.9184 1.13335 15.9336 1.28391 15.9503 1.46209C16.0458 2.46973 15.9739 3.5441 15.9736 4.55763L15.9829 10.2617C15.1697 9.33815 14.2692 8.49349 13.3764 7.64883C12.3745 6.73743 11.4368 5.80864 10.5195 4.81187C11.9694 3.48295 14.0767 2.05376 15.7029 0.913574V0.913885Z" fill="white"/>
<path d="M1.03369 0.0368218C4.18633 -0.0122251 7.34671 0.0638286 10.5003 0.07221C11.6829 0.0753143 13.5816 -0.0913831 14.6684 0.0715892C14.9961 0.120947 15.1812 0.315272 15.413 0.536914C14.5795 1.36264 13.1123 2.12876 12.1088 2.85516C11.3221 3.42509 8.47943 5.71664 7.78535 5.75668C7.50543 5.77251 7.16319 5.58502 6.92915 5.45216C6.00072 4.92506 5.11972 4.15117 4.26073 3.51325C2.98727 2.56708 1.66732 1.66127 0.432617 0.66574C0.616133 0.399707 0.76338 0.220903 1.03369 0.0368218Z" fill="white"/>
<path d="M10.0008 5.11523C10.0972 5.16676 14.5757 9.61296 15.0546 10.114C15.2632 10.3322 15.475 10.5483 15.6225 10.8137C15.5921 10.8801 15.59 10.895 15.5376 10.9586C15.4334 11.085 15.2279 11.1887 15.0689 11.2092C13.9641 11.3523 12.7306 11.2529 11.61 11.2557L4.70052 11.2678C3.73055 11.2747 1.5885 11.4386 0.750275 11.1275C0.562419 11.0577 0.400602 10.9174 0.245605 10.7935C0.864972 9.93238 1.67096 9.17806 2.40874 8.41721L5.5127 5.20464C6.07906 5.63333 6.78771 6.29112 7.50844 6.38331C8.40215 6.49786 9.32934 5.61533 10.0005 5.11555L10.0008 5.11523Z" fill="white"/>
</svg>
