<svg width="16" height="14" viewBox="0 0 16 14" fill="none" xmlns="http://www.w3.org/2000/svg">
<g id="Layer_1" clip-path="url(#clip0_461_715)">
<path id="Vector" d="M15.6099 6.71994L9.74994 1.05994C9.74994 1.05994 9.73994 1.05994 9.72994 1.04994C9.64994 0.979941 9.53994 0.939941 9.43994 0.939941C9.18994 0.939941 8.98994 1.13994 8.98994 1.38994C8.98994 1.49994 9.02994 1.60994 9.10994 1.69994C9.10994 1.69994 9.10994 1.70994 9.11994 1.71994L14.1399 6.55994H0.449941C0.329941 6.55994 0.219941 6.60994 0.129941 6.68994C-0.0400586 6.85994 -0.0400586 7.14994 0.129941 7.31994C0.209941 7.39994 0.329941 7.44994 0.449941 7.44994H14.1499L9.12994 12.2899C9.12994 12.2899 9.12994 12.2899 9.11994 12.3099C9.03994 12.3899 8.99994 12.4999 8.99994 12.6199C8.99994 12.8699 9.19994 13.0699 9.44994 13.0699C9.55994 13.0699 9.65994 13.0299 9.73994 12.9599C9.73994 12.9599 9.74994 12.9599 9.75994 12.9499L15.6199 7.29994C15.6999 7.22994 15.7399 7.12994 15.7399 7.01994C15.7399 6.90994 15.6999 6.80994 15.6199 6.73994L15.6099 6.71994Z" fill="url(#paint0_linear_461_715)"/>
</g>
<defs>
<linearGradient id="paint0_linear_461_715" x1="15.7399" y1="7.00494" x2="0.00244131" y2="7.00494" gradientUnits="userSpaceOnUse">
<stop stop-color="#B38A4D"/>
<stop offset="1" stop-color="#FCE99F"/>
</linearGradient>
<clipPath id="clip0_461_715">
<rect width="15.73" height="12.12" fill="white" transform="translate(0 0.939941)"/>
</clipPath>
</defs>
</svg>
