<svg width="22" height="22" viewBox="0 0 22 22" fill="none" xmlns="http://www.w3.org/2000/svg">
<g clip-path="url(#clip0_138_16869)">
<path d="M2.20531 10.1307C1.83959 10.1307 1.50067 10.1355 1.16017 10.1307C0.319959 10.1181 -0.230199 9.34756 0.0945358 8.6085C0.181237 8.40995 0.348333 8.22558 0.520159 8.08533C1.652 7.16505 2.79646 6.25896 3.9346 5.34813C6.04223 3.66359 8.1467 1.98061 10.2527 0.296064C10.743 -0.0963144 11.2679 -0.099466 11.755 0.291337C14.9992 2.88671 18.2403 5.48681 21.4924 8.07115C22.1623 8.60377 22.104 9.36647 21.7067 9.78091C21.4687 10.0283 21.1724 10.126 20.8413 10.1307C20.5071 10.1355 20.1745 10.1307 19.8088 10.1307C19.8088 10.2206 19.8088 10.3025 19.8088 10.3844C19.8088 13.8544 19.8088 17.3243 19.8088 20.7927C19.8088 21.5554 19.3658 21.9998 18.6044 21.9998C17.1967 21.9998 15.789 21.9998 14.3813 21.9998C13.6625 21.9998 13.2085 21.5428 13.2085 20.8195C13.2085 19.7007 13.2085 18.5803 13.2085 17.4614C13.2069 16.319 12.5117 15.4665 11.3925 15.2269C10.2512 14.9843 9.01056 15.8478 8.84661 17.0029C8.82139 17.1762 8.81036 17.3543 8.80878 17.5308C8.80563 18.637 8.80878 19.7432 8.8072 20.8494C8.8072 21.5302 8.34217 21.9982 7.66275 21.9982C6.22194 21.9982 4.78112 21.9982 3.34188 21.9982C2.67665 21.9982 2.20847 21.5271 2.20847 20.8589C2.20847 17.37 2.20847 13.8796 2.20847 10.3907V10.1292L2.20531 10.1307Z" fill="#005298"/>
</g>
<defs>
<clipPath id="clip0_138_16869">
<rect width="22" height="22" fill="white"/>
</clipPath>
</defs>
</svg>
