<svg width="10" height="10" viewBox="0 0 10 10" fill="none" xmlns="http://www.w3.org/2000/svg">
<path d="M6.15733 0.651204L6.88788 1.81487C7.07195 2.11026 7.35669 2.32509 7.68457 2.4146L8.97884 2.77564C9.94236 3.04417 10.3191 4.25259 9.69213 5.05522L8.84942 6.13534C8.63658 6.40985 8.52729 6.75596 8.54454 7.10804L8.61357 8.49549C8.66534 9.52787 7.67594 10.2738 6.74407 9.90382L5.49294 9.40852C5.17656 9.2832 4.82567 9.2832 4.50642 9.40852L3.25529 9.90382C2.32341 10.2738 1.33401 9.52787 1.38578 8.49549L1.45481 7.10804C1.47207 6.75596 1.36278 6.40985 1.14994 6.13534L0.307225 5.05522C-0.319777 4.24961 0.0598756 3.04417 1.02051 2.77564L2.31478 2.4146C2.64267 2.32211 2.92741 2.11026 3.11148 1.81487L3.84202 0.651204C4.38562 -0.217068 5.61086 -0.217068 6.15445 0.651204H6.15733Z" fill="#00AEEF"/>
</svg>
