<svg width="36" height="37" viewBox="0 0 36 37" fill="none" xmlns="http://www.w3.org/2000/svg">
<g clip-path="url(#clip0_731_3148)">
<path d="M17.9999 36.8143C8.15199 36.8143 0.148682 28.811 0.148682 18.9631C0.148682 9.11512 8.15199 1.11182 17.9999 1.11182C27.8479 1.11182 35.8512 9.11512 35.8512 18.9631C35.8512 28.811 27.8479 36.8143 17.9999 36.8143Z" fill="#F4F4F4"/>
<path d="M13.4182 14.7974H6.75374V16.2552H11.3951L6.843 21.8784C6.69424 22.0866 6.60498 22.2949 6.60498 22.7412V23.1279H12.8827C13.1802 23.1279 13.4777 22.8602 13.4777 22.5329V21.7891H8.56862L12.8529 16.4337C12.9124 16.3742 13.0314 16.2255 13.0909 16.166L13.1207 16.1362C13.3587 15.7494 13.4182 15.4519 13.4182 15.0651V14.8271V14.7974ZM21.8678 23.0982H22.8199V14.7974H21.362V22.5924C21.4215 22.8602 21.6298 23.0982 21.8678 23.0982ZM16.9885 16.6122C15.2033 16.6122 13.7455 18.0701 13.7455 19.8552C13.7455 21.6403 15.2033 23.0982 16.9885 23.0982C18.7736 23.0982 20.2314 21.6403 20.2314 19.8552C20.2612 18.0998 18.8331 16.6122 16.9885 16.6122ZM16.9885 21.7891C15.9174 21.7891 15.0546 20.9263 15.0546 19.8552C15.0546 18.7841 15.9174 17.9213 16.9885 17.9213C18.0595 17.9213 18.9223 18.7841 18.9223 19.8552C18.9223 20.9263 18.0595 21.7891 16.9885 21.7891ZM27.0744 16.5825C25.2595 16.5825 23.8017 18.0701 23.8017 19.8552C23.8017 21.6701 25.2893 23.1279 27.0744 23.1279C28.8893 23.1279 30.3471 21.6403 30.3471 19.8552C30.3471 18.0701 28.8595 16.5825 27.0744 16.5825ZM27.0744 21.7891C26.0033 21.7891 25.1405 20.9263 25.1405 19.8552C25.1405 18.7841 26.0033 17.9213 27.0744 17.9213C28.1455 17.9213 29.0083 18.7841 29.0083 19.8552C29.0083 20.9263 28.1455 21.7891 27.0744 21.7891ZM19.5174 23.0982H20.2612V16.8503H18.9223V22.5627C18.9223 22.8007 19.1901 23.0982 19.5174 23.0982Z" fill="#005298"/>
<path d="M17.9999 1.70686C27.5206 1.70686 35.2561 9.4424 35.2561 18.9631C35.2561 28.4837 27.5206 36.2193 17.9999 36.2193C8.47926 36.2193 0.743723 28.4837 0.743723 18.9631C0.743723 9.4424 8.47926 1.70686 17.9999 1.70686ZM17.9999 1.11182C8.15199 1.11182 0.148682 9.11512 0.148682 18.9631C0.148682 28.811 8.15199 36.8143 17.9999 36.8143C27.8479 36.8143 35.8512 28.811 35.8512 18.9631C35.8512 9.11512 27.8479 1.11182 17.9999 1.11182Z" fill="#F4F4F4"/>
</g>
<defs>
<clipPath id="clip0_731_3148">
<rect width="36" height="36" fill="white" transform="translate(0 0.962891)"/>
</clipPath>
</defs>
</svg>
