<?xml version="1.0" encoding="utf-8"?>
<!-- Generator: Adobe Illustrator 19.0.0, SVG Export Plug-In . SVG Version: 6.00 Build 0)  -->
<svg version="1.1" id="Layer_1" xmlns="http://www.w3.org/2000/svg" xmlns:xlink="http://www.w3.org/1999/xlink" x="0px" y="0px"
	 width="40px" height="40px" viewBox="5 -5 40 40" style="enable-background:new 5 -5 40 40;" xml:space="preserve">
<style type="text/css">
	.st0{clip-path:url(#SVGID_2_);}
	.st1{fill:#0F4C3B;}
	.st2{fill:url(#Vector_2_1_);}
	.st3{fill:url(#Mail_2_Filled_1_);}
</style>
<g>
	<defs>
		<rect id="SVGID_1_" x="5" y="-5" width="40" height="40"/>
	</defs>
	<clipPath id="SVGID_2_">
		<use xlink:href="#SVGID_1_"  style="overflow:visible;"/>
	</clipPath>
	<g id="mail-04" class="st0">
		<g id="Group">
			<path id="Vector" class="st1" d="M25,35C14,35,5,26,5,15C5,4,14-5,25-5c11,0,20,9,20,20C45,26,36,35,25,35z"/>
			
				<linearGradient id="Vector_2_1_" gradientUnits="userSpaceOnUse" x1="5" y1="15" x2="45" y2="15" gradientTransform="matrix(1 0 0 -1 0 30)">
				<stop  offset="0" style="stop-color:#FBE89E"/>
				<stop  offset="0.1857" style="stop-color:#E9D18A"/>
				<stop  offset="0.542" style="stop-color:#CBA968"/>
				<stop  offset="0.8259" style="stop-color:#B99154"/>
				<stop  offset="1" style="stop-color:#B2884C"/>
			</linearGradient>
			<path id="Vector_2" class="st2" d="M25-4.3c10.7,0,19.3,8.7,19.3,19.3S35.7,34.3,25,34.3S5.7,25.7,5.7,15S14.3-4.3,25-4.3z M25-5
				C14-5,5,4,5,15c0,11,9,20,20,20c11,0,20-9,20-20C45,4,36-5,25-5z"/>
		</g>
		
			<linearGradient id="Mail_2_Filled_1_" gradientUnits="userSpaceOnUse" x1="15.8333" y1="15" x2="34.1141" y2="15" gradientTransform="matrix(1 0 0 -1 0 30)">
			<stop  offset="0" style="stop-color:#FBE89E"/>
			<stop  offset="0.1857" style="stop-color:#E9D18A"/>
			<stop  offset="0.542" style="stop-color:#CBA968"/>
			<stop  offset="0.8259" style="stop-color:#B99154"/>
			<stop  offset="1" style="stop-color:#B2884C"/>
		</linearGradient>
		<path id="Mail_2_Filled" class="st3" d="M34.1,11.3v7.4c0,0.6-0.2,1.1-0.4,1.5l-5.8-5.7l5.7-4.9C33.9,10,34.1,10.6,34.1,11.3z
			 M32.7,8.8c-0.4-0.3-0.9-0.4-1.4-0.4H18.7c-0.6,0-1.1,0.2-1.6,0.5l7.7,6.7L32.7,8.8z M25.2,16.8c-0.1,0.1-0.3,0.1-0.4,0.1
			c-0.1,0-0.3,0-0.4-0.1l-1.7-1.4l-5.6,5.7c0.4,0.3,1,0.5,1.6,0.5h12.6c0.6,0,1.2-0.2,1.6-0.5L27,15.2L25.2,16.8z M16.3,9.7
			c-0.3,0.4-0.5,1-0.5,1.6v7.4c0,0.6,0.2,1.1,0.5,1.6l5.6-5.6L16.3,9.7z"/>
	</g>
</g>
</svg>
