<svg width="58" height="58" viewBox="0 0 58 58" fill="none" xmlns="http://www.w3.org/2000/svg">
<path d="M5.4375 38.0625L17.9051 25.5949C18.41 25.09 19.0094 24.6895 19.6691 24.4162C20.3289 24.1429 21.0359 24.0023 21.75 24.0023C22.4641 24.0023 23.1711 24.1429 23.8309 24.4162C24.4906 24.6895 25.09 25.09 25.5949 25.5949L38.0625 38.0625M34.4375 34.4375L37.8426 31.0324C38.3475 30.5275 38.9469 30.127 39.6066 29.8537C40.2664 29.5804 40.9734 29.4398 41.6875 29.4398C42.4016 29.4398 43.1086 29.5804 43.7684 29.8537C44.4281 30.127 45.0275 30.5275 45.5324 31.0324L52.5625 38.0625M9.0625 47.125H48.9375C49.8989 47.125 50.8209 46.7431 51.5008 46.0633C52.1806 45.3834 52.5625 44.4614 52.5625 43.5V14.5C52.5625 13.5386 52.1806 12.6166 51.5008 11.9367C50.8209 11.2569 49.8989 10.875 48.9375 10.875H9.0625C8.10109 10.875 7.17906 11.2569 6.49924 11.9367C5.81942 12.6166 5.4375 13.5386 5.4375 14.5V43.5C5.4375 44.4614 5.81942 45.3834 6.49924 46.0633C7.17906 46.7431 8.10109 47.125 9.0625 47.125ZM34.4375 19.9375H34.4568V19.9568H34.4375V19.9375ZM35.3438 19.9375C35.3438 20.1779 35.2483 20.4084 35.0783 20.5783C34.9084 20.7483 34.6779 20.8438 34.4375 20.8438C34.1971 20.8438 33.9666 20.7483 33.7967 20.5783C33.6267 20.4084 33.5313 20.1779 33.5313 19.9375C33.5313 19.6971 33.6267 19.4666 33.7967 19.2967C33.9666 19.1267 34.1971 19.0313 34.4375 19.0313C34.6779 19.0313 34.9084 19.1267 35.0783 19.2967C35.2483 19.4666 35.3438 19.6971 35.3438 19.9375Z" stroke="#D7DBE2" stroke-width="1.5" stroke-linecap="round" stroke-linejoin="round"/>
</svg>
