<svg width="40" height="40" viewBox="0 0 40 40" fill="none" xmlns="http://www.w3.org/2000/svg">
<path d="M40 20C40 29.6341 33.1869 37.6754 24.1184 39.5774C22.7904 39.8516 21.4108 40 20 40C8.95502 40 0 31.045 0 20C0 8.95502 8.95502 0 20 0C31.045 0 39.591 8.54601 39.987 19.247C39.9959 19.4952 40 19.7476 40 20Z" fill="#00AEEF"/>
<g style="mix-blend-mode:multiply">
<path d="M39.9998 19.9999C39.9998 29.634 33.1867 37.6753 24.1182 39.5773C22.3202 37.7793 20.4832 35.9423 20.4832 35.9423L20.4661 35.9293L14.5189 29.9827L7.49666 22.9563C6.22117 21.6808 6.22117 19.6175 7.49666 18.3414C7.57527 18.2628 7.65329 18.1889 7.74017 18.1191C9.02039 17.07 10.9141 17.1439 12.111 18.3414L16.8258 23.0562L28.0014 11.8806C28.08 11.802 28.1628 11.7281 28.2449 11.6584C29.5293 10.6092 31.423 10.6831 32.6158 11.8806C32.6199 11.8806 36.4771 15.7378 39.9862 19.2469C39.995 19.4951 39.9992 19.7475 39.9992 19.9999H39.9998Z" fill="#C2C2C2"/>
</g>
<path d="M32.6184 11.8795C31.3435 10.6046 29.276 10.6046 28.0011 11.8795L16.8267 23.0539L12.1125 18.3397C10.8376 17.0642 8.77009 17.0642 7.49519 18.3397C6.2197 19.6146 6.2197 21.6821 7.49519 22.957L14.5181 29.9805C15.1304 30.5928 15.9608 30.9368 16.8267 30.9368C17.6926 30.9368 18.523 30.5928 19.1354 29.9805L32.6184 16.4968C33.8939 15.2219 33.8939 13.1544 32.6184 11.8795Z" fill="white"/>
</svg>
