<svg width="292" height="118" viewBox="0 0 292 118" fill="none" xmlns="http://www.w3.org/2000/svg">
<g clip-path="url(#clip0_721_3063)">
<path d="M77.0968 29.7265C79.8107 29.8728 82.1707 28.3228 82.3624 26.2611C82.5542 24.1994 80.504 22.4009 77.8048 22.2547C75.0908 22.1084 72.7456 23.6584 72.5391 25.7201C72.3474 27.7818 74.3828 29.5803 77.0968 29.7265Z" fill="#FBFBFB"/>
<path d="M84.2947 37.6516C76.9051 37.0667 73.1586 33.9815 70.9167 31.0278C68.955 33.3527 65.8575 36.862 63.7041 41.4972C63.7041 41.5118 63.7041 41.5411 63.7041 41.5557C63.4091 44.0268 60.9754 57.1282 69.1762 63.8543C68.7485 59.6286 66.4328 53.8529 73.4094 43.2226H85.9909L84.3094 37.6516H84.2947Z" fill="#FBFBFB"/>
<path d="M72.8488 10.6595L69.5743 0L56.5208 47.3462C55.9308 50.6362 56.1963 51.7328 57.627 49.5249C59.2348 47.0684 61.0785 43.6761 62.1257 42.0823C64.5594 36.716 67.5241 32.9581 70.0758 29.8875C67.6421 24.4919 69.8693 16.8446 72.8488 10.6741" fill="#FBFBFB"/>
<path d="M101.419 53.8677C99.9882 54.1456 99.2655 55.9733 99.7817 57.9765C100.298 59.9651 101.891 61.325 103.336 61.0326C104.782 60.7255 105.505 58.8977 104.974 56.9384C104.443 54.979 102.85 53.6045 101.419 53.8677Z" fill="#FBFBFB"/>
<path d="M88.8228 51.2065L88.4688 51.265C86.7579 51.5428 79.7665 54.6573 74.5894 61.3981C77.7605 59.5703 84.3832 56.412 90.1208 59.0293L90.0766 59.1171H90.1503L93.823 68.3728L96.6992 65.8286C95.2537 60.4184 95.8732 56.5728 96.9057 54.3503C95.8289 52.6687 91.5958 51.689 88.8228 51.1919" fill="#FBFBFB"/>
<path d="M83.4687 46.3667C81.1972 46.3959 81.1382 46.6007 82.274 47.6242C85.9909 50.9142 94.6785 50.3 97.6727 53.4876C101.183 49.101 108.307 50.1392 113.44 51.1189L118.971 46.3813H83.4539L83.4687 46.3667Z" fill="#FBFBFB"/>
<path d="M84.5454 91.1393C82.5837 92.6015 81.625 94.8533 82.4214 96.1839C83.2179 97.4999 85.4304 97.3683 87.3773 95.8914C89.3243 94.4146 90.283 92.1774 89.5013 90.8761C88.7343 89.5747 86.5071 89.6771 84.5454 91.1393Z" fill="#FBFBFB"/>
<path d="M89.6782 68.8994C89.6192 70.5809 89.2652 74.6897 89.28 76.2396C89.8847 79.8659 89.6192 84.4134 89.2505 87.1916C93.5132 88.8292 95.7404 93.6837 95.3864 98.86L102.894 104.519L91.4187 69.5866C90.4157 67.364 89.752 66.8669 89.693 68.8994" fill="#FBFBFB"/>
<path d="M88.4099 76.532C88.3214 76.415 88.4394 76.6636 88.4099 76.4589C88.1296 74.6896 83.8965 67.2762 77.6573 66.3843C79.737 68.212 82.6427 72.0284 81.6103 79.2663H81.4923L81.5218 79.3394L72.6277 87.2792L76.5806 90.1451C81.7283 87.0745 85.2682 86.6505 88.1149 87.0014C88.6606 83.6968 88.6754 80.4946 88.4099 76.5466" fill="#FBFBFB"/>
<path d="M37.4199 96.5935C39.5881 98.1435 42.3463 98.2166 43.6 96.7544C44.8537 95.3068 44.1163 92.8503 41.9628 91.2711C39.8093 89.6773 37.0364 89.5896 35.7827 91.0664C34.529 92.5578 35.2664 95.029 37.4346 96.5935" fill="#FBFBFB"/>
<path d="M71.0789 70.2734C69.5597 73.6365 63.5123 79.924 53.217 82.6583V82.5267L53.1138 82.5998L42.1695 75.0256L40.134 81.2253C45.9602 86.5478 47.9366 91.0367 47.5826 94.8677C50.1048 94.7069 57.6272 90.408 61.7424 87.0888C64.6776 84.4568 71.1379 78.0816 71.0494 70.2588" fill="#FBFBFB"/>
<path d="M47.494 96.301C46.078 101.112 40.7091 105.177 35.4287 108.101L32.582 118L68.2026 89.8234C70.4003 87.7763 70.769 86.8551 68.4533 87.6593C65.7836 88.5952 59.456 90.4229 58.571 90.5545C54.5738 93.5813 51.8304 94.9704 47.7005 96.2425C47.6415 96.2571 47.494 96.3156 47.494 96.3156" fill="#FBFBFB"/>
<path d="M28.4965 47.6974C30.6057 48.6624 33.3787 46.9078 34.6914 43.7933C36.0041 40.6788 35.3404 37.3742 33.1869 36.3945C31.0335 35.4148 28.2605 37.1402 26.9773 40.2693C25.7088 43.3985 26.3873 46.7323 28.4965 47.712" fill="#FBFBFB"/>
<path d="M47.0368 73.1833C45.1341 70.449 42.3317 67.0713 41.1812 65.3898C40.9894 65.112 40.429 64.2493 40.311 63.9861C33.3343 59.6287 30.4729 54.3647 28.9389 51.7182C23.2603 51.2502 17.2867 47.2584 12.5963 42.1846H0L44.2786 73.7536C47.4351 75.479 48.6888 75.5375 47.0368 73.1687" fill="#FBFBFB"/>
<path d="M41.8892 63.5326C42.1252 63.6642 42.1989 63.7081 42.3907 63.7958C44.8539 64.9656 54.4412 70.0395 66.3 69.0452C62.2143 67.5683 54.0577 64.0444 49.264 55.432L48.9395 54.8471L52.9515 43.1934H44.8096C40.5617 50.2997 35.4436 51.4987 30.8269 51.601C31.9921 54.5986 36.0041 59.9649 41.9039 63.5326" fill="#FBFBFB"/>
<path d="M136.538 54.1748L133.721 53.546C132.054 53.2097 131.184 52.4786 131.184 51.4112C131.184 49.9782 132.364 49.0863 134.267 49.0863C136.42 49.0863 137.497 50.2999 137.585 51.6013H141.258C141.214 48.3113 138.426 46.0303 134.281 46.0303C130.343 46.0303 127.246 48.0627 127.246 51.7036C127.246 54.862 129.429 56.3388 132.04 56.8945L134.827 57.5378C136.7 57.9619 137.659 58.576 137.659 59.8335C137.659 61.2811 136.494 62.2608 134.296 62.2608C131.936 62.2608 130.697 61.0325 130.594 59.658H126.818C126.877 62.29 128.647 65.3606 134.119 65.3606C138.721 65.3606 141.568 63.1088 141.568 59.4533C141.568 56.0756 139.267 54.7596 136.553 54.1748" fill="#FBFBFB"/>
<path d="M148.913 46.396L142.762 64.9953H146.701L148.087 60.3747H154.134L155.506 64.9953H159.71L153.589 46.396H148.928H148.913ZM148.854 57.4795L151.037 50.11H151.214L153.367 57.4795H148.869H148.854Z" fill="#FBFBFB"/>
<path d="M165.742 46.396H161.79V64.9953H165.742V46.396Z" fill="#FBFBFB"/>
<path d="M176.952 57.8011H180.581V58.8538C180.581 60.6231 179.15 62.0707 176.849 62.0707C173.929 62.0707 172.793 59.8481 172.793 56.7775V54.4965C172.793 50.9433 174.46 49.3203 176.805 49.3203C178.767 49.3203 180.227 50.4462 180.448 52.4055H184.283C184.165 49.174 181.746 46.0449 176.849 46.0449C171.952 46.0449 168.811 49.3641 168.811 54.4818V56.7921C168.811 61.6759 171.244 65.346 176.79 65.346C182.336 65.346 184.312 61.5882 184.312 58.5906V54.9059H176.938V57.8011H176.952Z" fill="#FBFBFB"/>
<path d="M194.74 46.0449C189.696 46.0449 186.672 49.3203 186.672 54.5988V56.9091C186.672 62.1584 189.667 65.346 194.711 65.346C199.755 65.346 202.794 62.1584 202.794 56.9091V54.5988C202.794 49.3349 199.8 46.0449 194.74 46.0449ZM198.782 56.9384C198.782 60.4184 197.115 62.0853 194.726 62.0853C192.336 62.0853 190.67 60.4038 190.67 56.9384V54.5696C190.67 51.1042 192.351 49.3056 194.726 49.3056C197.1 49.3056 198.782 51.1042 198.782 54.5696V56.9384Z" fill="#FBFBFB"/>
<path d="M217.204 58.3422H217.072L209.122 46.396H205.891V64.9953H209.594V52.9759H209.726L217.691 64.9953H220.907V46.396H217.204V58.3422Z" fill="#FBFBFB"/>
<path d="M238.813 54.1748L235.995 53.546C234.329 53.2097 233.459 52.4786 233.459 51.4112C233.459 49.9782 234.639 49.0863 236.541 49.0863C238.695 49.0863 239.771 50.2999 239.86 51.6013H243.533C243.488 48.3113 240.701 46.0303 236.556 46.0303C232.618 46.0303 229.52 48.0627 229.52 51.7036C229.52 54.862 231.703 56.3388 234.314 56.8945L237.102 57.5378C238.975 57.9619 239.934 58.576 239.934 59.8335C239.934 61.2811 238.768 62.2608 236.571 62.2608C234.211 62.2608 232.972 61.0325 232.869 59.658H229.078C229.137 62.29 230.907 65.3606 236.379 65.3606C240.981 65.3606 243.828 63.1088 243.828 59.4533C243.828 56.0756 241.527 54.7596 238.798 54.1748" fill="#FBFBFB"/>
<path d="M259.403 46.396H245.052V49.6713H250.258V64.9953H254.197V49.6713H259.403V46.396Z" fill="#FBFBFB"/>
<path d="M264.566 46.396L258.415 64.9953H262.353L263.74 60.3747H269.787L271.159 64.9953H275.362L269.241 46.396H264.58H264.566ZM264.507 57.4795L266.69 50.11H266.867L269.02 57.4795H264.521H264.507Z" fill="#FBFBFB"/>
<path d="M288.268 57.5672C289.625 57.0262 291.631 55.4032 291.631 52.3326C291.631 48.9841 289.478 46.396 285.023 46.396H277.457V64.9953H281.336V58.1521H284.404L287.634 64.9953H292.015L288.283 57.5672H288.268ZM284.389 55.2716H281.321V49.4228H284.433C286.233 49.4228 287.56 50.4317 287.56 52.4057C287.56 54.2773 286.336 55.2716 284.374 55.2716" fill="#FBFBFB"/>
<path d="M129.149 70.9316H127.733V78.8129H129.149V70.9316Z" fill="#FBFBFB"/>
<path d="M137.659 76.4295H137.6L133.928 70.9316H132.703V78.7983H134.06V73.2712H134.105L137.792 78.7983H139.001V70.9316H137.659V76.4295Z" fill="#FBFBFB"/>
<path d="M141.789 72.1014H144.105V78.7983H145.506V72.1014H147.836V70.9316H141.789V72.1014Z" fill="#FBFBFB"/>
<path d="M150.609 78.7983H155.669V77.6285H152.025V75.3621H155.447V74.2508H152.025V72.0868H155.669V70.9316H150.609V78.7983Z" fill="#FBFBFB"/>
<path d="M164.814 73.3735C164.814 72.0283 163.943 70.9316 162.07 70.9316H158.973V78.8129H160.374V75.8154H161.937L163.353 78.8129H164.946L163.324 75.5961C163.958 75.3475 164.784 74.6895 164.784 73.3881M161.849 74.7334H160.374V72.0575H161.878C162.749 72.0575 163.353 72.5254 163.353 73.4174C163.353 74.2655 162.808 74.7334 161.849 74.7334Z" fill="#FBFBFB"/>
<path d="M173.014 76.4295H172.97L169.297 70.9316H168.073V78.7983H169.415V73.2712H169.46L173.147 78.7983H174.357V70.9316H173.014V76.4295Z" fill="#FBFBFB"/>
<path d="M179.873 70.9316L177.144 78.8129H178.575L179.253 76.6927H182.012L182.69 78.8129H184.209L181.481 70.9316H179.873ZM179.563 75.6107L180.61 72.3354H180.669L181.717 75.6107H179.578H179.563Z" fill="#FBFBFB"/>
<path d="M185.581 72.1014H187.912V78.7983H189.313V72.1014H191.643V70.9316H185.581V72.1014Z" fill="#FBFBFB"/>
<path d="M195.832 70.9316H194.416V78.8129H195.832V70.9316Z" fill="#FBFBFB"/>
<path d="M202.44 70.771C200.36 70.771 199.077 72.1308 199.077 74.368V75.4208C199.077 77.6434 200.345 78.9594 202.425 78.9594C204.505 78.9594 205.788 77.6434 205.788 75.4208V74.368C205.788 72.1308 204.52 70.771 202.44 70.771ZM204.357 75.4208C204.357 77.0146 203.546 77.775 202.44 77.775C201.334 77.775 200.508 77.0146 200.508 75.4208V74.3534C200.508 72.7596 201.319 71.9554 202.44 71.9554C203.561 71.9554 204.357 72.7742 204.357 74.3534V75.4208Z" fill="#FBFBFB"/>
<path d="M213.989 76.4295H213.93L210.257 70.9316H209.033V78.7983H210.39V73.2712H210.434L214.122 78.7983H215.331V70.9316H213.989V76.4295Z" fill="#FBFBFB"/>
<path d="M220.848 70.9316L218.119 78.8129H219.55L220.228 76.6927H222.986L223.665 78.8129H225.184L222.455 70.9316H220.848ZM220.538 75.6107L221.585 72.3354H221.629L222.677 75.6107H220.538Z" fill="#FBFBFB"/>
<path d="M229.388 70.9316H227.957V78.7983H232.869V77.5993H229.388V70.9316Z" fill="#FBFBFB"/>
<path d="M243.341 74.3241L242.058 74.0171C241.32 73.8562 240.951 73.4907 240.951 72.9935C240.951 72.2917 241.541 71.8822 242.441 71.8822C243.444 71.8822 243.96 72.4233 244.005 73.0666H245.347C245.317 71.6191 244.049 70.7563 242.441 70.7563C240.833 70.7563 239.521 71.5898 239.521 73.1105C239.521 74.3972 240.45 75.0114 241.512 75.2453L242.795 75.5524C243.636 75.7571 244.049 76.0642 244.049 76.649C244.049 77.3655 243.459 77.8188 242.456 77.8188C241.35 77.8188 240.76 77.2485 240.701 76.5905H239.329C239.358 77.658 240.096 78.9447 242.353 78.9447C244.211 78.9447 245.465 78.0528 245.465 76.5174C245.465 75.1576 244.536 74.5873 243.341 74.3241Z" fill="#FBFBFB"/>
<path d="M251.601 70.771C249.58 70.771 248.326 72.087 248.326 74.4119V75.3623C248.326 77.6726 249.565 78.9594 251.601 78.9594C253.636 78.9594 254.683 77.6287 254.683 76.3274V76.2104H253.312C253.312 77.0439 252.736 77.7603 251.63 77.7603C250.524 77.7603 249.742 77.0146 249.742 75.3477V74.4119C249.742 72.7742 250.494 71.97 251.601 71.97C252.707 71.97 253.312 72.7888 253.312 73.6223H254.683V73.5199C254.683 72.1016 253.577 70.7856 251.601 70.7856" fill="#FBFBFB"/>
<path d="M262.855 74.1777H259.285V70.9316H257.869V78.7983H259.285V75.3475H262.855V78.7983H264.271V70.9316H262.855V74.1777Z" fill="#FBFBFB"/>
<path d="M270.879 70.771C268.799 70.771 267.516 72.1308 267.516 74.368V75.4208C267.516 77.6434 268.784 78.9594 270.864 78.9594C272.944 78.9594 274.227 77.6434 274.227 75.4208V74.368C274.227 72.1308 272.958 70.771 270.879 70.771ZM272.796 75.4208C272.796 77.0146 271.985 77.775 270.879 77.775C269.772 77.775 268.946 77.0146 268.946 75.4208V74.3534C268.946 72.7596 269.758 71.9554 270.879 71.9554C272 71.9554 272.796 72.7742 272.796 74.3534V75.4208Z" fill="#FBFBFB"/>
<path d="M280.51 70.771C278.43 70.771 277.147 72.1308 277.147 74.368V75.4208C277.147 77.6434 278.416 78.9594 280.495 78.9594C282.575 78.9594 283.858 77.6434 283.858 75.4208V74.368C283.858 72.1308 282.59 70.771 280.51 70.771ZM282.428 75.4208C282.428 77.0146 281.616 77.775 280.51 77.775C279.404 77.775 278.578 77.0146 278.578 75.4208V74.3534C278.578 72.7596 279.389 71.9554 280.51 71.9554C281.631 71.9554 282.428 72.7742 282.428 74.3534V75.4208Z" fill="#FBFBFB"/>
<path d="M288.519 77.5993V70.9316H287.103V78.7983H292V77.5993H288.519Z" fill="#FBFBFB"/>
</g>
<defs>
<clipPath id="clip0_721_3063">
<rect width="292" height="118" fill="white"/>
</clipPath>
</defs>
</svg>
