<svg width="237" height="96" viewBox="0 0 237 96" fill="none" xmlns="http://www.w3.org/2000/svg">
<g clip-path="url(#clip0_897_6557)">
<path d="M62.5751 24.1844C64.7778 24.3033 66.6933 23.0424 66.8489 21.3651C67.0045 19.6877 65.3405 18.2245 63.1497 18.1056C60.9469 17.9866 59.0435 19.2476 58.8759 20.9249C58.7202 22.6022 60.3723 24.0654 62.5751 24.1844Z" fill="#005298"/>
<path d="M68.4171 30.632C62.4194 30.1561 59.3786 27.6461 57.5589 25.2431C55.9667 27.1346 53.4527 29.9896 51.7049 33.7606C51.7049 33.7725 51.7049 33.7963 51.7049 33.8082C51.4654 35.8186 49.4902 46.4773 56.1463 51.9495C55.7991 48.5115 53.9196 43.8127 59.5821 35.1643H69.7938L68.4291 30.632H68.4171Z" fill="#E52489"/>
<path d="M59.1272 8.67212L56.4695 0L45.8747 38.519C45.3959 41.1955 45.6113 42.0877 46.7726 40.2915C48.0775 38.2929 49.5739 35.5331 50.4239 34.2364C52.3992 29.8706 54.8055 26.8134 56.8765 24.3152C54.9012 19.9257 56.7089 13.7041 59.1272 8.68402" fill="#005298"/>
<path d="M82.316 43.8246C81.1548 44.0506 80.5682 45.5376 80.9872 47.1673C81.4062 48.7851 82.6991 49.8915 83.8723 49.6535C85.0455 49.4037 85.6321 47.9167 85.2011 46.3227C84.7702 44.7286 83.4773 43.6104 82.316 43.8246Z" fill="#005298"/>
<path d="M72.0926 41.6595L71.8052 41.7071C70.4165 41.9331 64.742 44.4669 60.54 49.9509C63.1139 48.4639 68.4891 45.8944 73.146 48.0238L73.1101 48.0952H73.17L76.1509 55.6253L78.4853 53.5554C77.3121 49.1539 77.8149 46.0253 78.6529 44.2171C77.779 42.8491 74.3432 42.052 72.0926 41.6476" fill="#38B34A"/>
<path d="M67.7469 37.7219C65.9032 37.7457 65.8554 37.9123 66.7772 38.745C69.794 41.4216 76.8452 40.9219 79.2754 43.5152C82.1246 39.9465 87.9069 40.7911 92.073 41.5881L96.5623 37.7338H67.7349L67.7469 37.7219Z" fill="#005298"/>
<path d="M68.6208 74.1472C67.0286 75.3368 66.2505 77.1688 66.8969 78.2513C67.5434 79.322 69.3391 79.2149 70.9193 78.0134C72.4996 76.8119 73.2777 74.9918 72.6432 73.9331C72.0207 72.8744 70.213 72.9576 68.6208 74.1472Z" fill="#005298"/>
<path d="M72.7869 56.0535C72.739 57.4216 72.4517 60.7643 72.4636 62.0253C72.9545 64.9755 72.739 68.6751 72.4397 70.9353C75.8995 72.2677 77.7072 76.2171 77.4198 80.4282L83.5133 85.032L74.1995 56.6126C73.3854 54.8045 72.8467 54.4 72.7988 56.0535" fill="#005298"/>
<path d="M71.7573 62.2632C71.6854 62.168 71.7812 62.3703 71.7573 62.2037C71.5298 60.7643 68.094 54.7331 63.03 54.0074C64.718 55.4944 67.0764 58.5993 66.2384 64.4877H66.1426L66.1666 64.5472L58.9478 71.0067L62.1561 73.3383C66.3342 70.8402 69.2073 70.4952 71.5178 70.7807C71.9608 68.0922 71.9728 65.487 71.7573 62.2751" fill="#F37021"/>
<path d="M30.3717 78.5844C32.1315 79.8454 34.3702 79.9048 35.3878 78.7153C36.4054 77.5376 35.8068 75.539 34.0589 74.2543C32.3111 72.9576 30.0605 72.8863 29.0429 74.0877C28.0253 75.3011 28.6239 77.3115 30.3837 78.5844" fill="#005298"/>
<path d="M57.6907 57.1717C56.4576 59.9078 51.5493 65.023 43.1932 67.2476V67.1405L43.1094 67.2L34.2265 61.0379L32.5745 66.0818C37.3032 70.4119 38.9074 74.0639 38.6201 77.1807C40.6672 77.0498 46.7727 73.5524 50.1127 70.8521C52.4951 68.7108 57.7386 63.5242 57.6667 57.1599" fill="#FFD400"/>
<path d="M38.5483 78.3465C37.399 82.2602 33.0414 85.5673 28.7556 87.9465L26.4451 96L55.3563 73.0766C57.14 71.4112 57.4393 70.6617 55.5598 71.316C53.3929 72.0773 48.2572 73.5643 47.5389 73.6714C44.2946 76.1338 42.0679 77.2639 38.7159 78.2989C38.668 78.3108 38.5483 78.3584 38.5483 78.3584" fill="#005298"/>
<path d="M23.1289 38.8044C24.8408 39.5896 27.0914 38.1621 28.1569 35.6282C29.2223 33.0944 28.6836 30.4059 26.9358 29.6089C25.188 28.8119 22.9373 30.2156 21.8958 32.7613C20.8662 35.3071 21.4169 38.0193 23.1289 38.8163" fill="#005298"/>
<path d="M38.1771 59.539C36.6328 57.3145 34.3582 54.5665 33.4245 53.1985C33.2688 52.9725 32.8139 52.2706 32.7181 52.0565C27.0556 48.5115 24.7331 44.229 23.4881 42.0758C18.8791 41.6952 14.0306 38.4476 10.2237 34.3197H0L35.9385 60.003C38.5004 61.4067 39.518 61.4543 38.1771 59.5271" fill="#005298"/>
<path d="M33.9991 51.6877C34.1907 51.7948 34.2505 51.8305 34.4062 51.9019C36.4054 52.8535 44.1869 56.9814 53.812 56.1725C50.4959 54.971 43.8756 52.1041 39.9849 45.0974L39.7215 44.6216L42.9778 35.1405H36.3695C32.9217 40.9219 28.7676 41.8974 25.0205 41.9807C25.9663 44.4193 29.2225 48.7851 34.0111 51.6877" fill="#00AEEF"/>
<path d="M110.82 44.0744L108.534 43.5628C107.181 43.2892 106.475 42.6944 106.475 41.826C106.475 40.6602 107.432 39.9346 108.977 39.9346C110.725 39.9346 111.599 40.9219 111.67 41.9807H114.651C114.615 39.3041 112.353 37.4483 108.989 37.4483C105.792 37.4483 103.278 39.1019 103.278 42.0639C103.278 44.6335 105.05 45.835 107.169 46.287L109.432 46.8104C110.952 47.1554 111.73 47.655 111.73 48.6781C111.73 49.8558 110.784 50.6528 109.001 50.6528C107.085 50.6528 106.08 49.6535 105.996 48.5353H102.931C102.979 50.6766 104.416 53.1747 108.857 53.1747C112.592 53.1747 114.903 51.3428 114.903 48.3688C114.903 45.6208 113.035 44.5502 110.832 44.0744" fill="#005298"/>
<path d="M120.864 37.7457L115.872 52.8773H119.069L120.194 49.1182H125.102L126.216 52.8773H129.628L124.659 37.7457H120.876H120.864ZM120.817 46.7628L122.588 40.7673H122.732L124.48 46.7628H120.829H120.817Z" fill="#005298"/>
<path d="M134.524 37.7457H131.316V52.8773H134.524V37.7457Z" fill="#005298"/>
<path d="M143.622 47.0245H146.567V47.8811C146.567 49.3205 145.406 50.4982 143.538 50.4982C141.168 50.4982 140.246 48.69 140.246 46.1918V44.3361C140.246 41.4454 141.599 40.1249 143.502 40.1249C145.095 40.1249 146.28 41.0409 146.459 42.635H149.572C149.476 40.006 147.513 37.4602 143.538 37.4602C139.564 37.4602 137.014 40.1606 137.014 44.3242V46.2037C137.014 50.177 138.989 53.1628 143.491 53.1628C147.992 53.1628 149.596 50.1056 149.596 47.6669V44.6692H143.61V47.0245H143.622Z" fill="#005298"/>
<path d="M158.06 37.4602C153.966 37.4602 151.511 40.1249 151.511 44.4193V46.2989C151.511 50.5695 153.942 53.1628 158.036 53.1628C162.13 53.1628 164.596 50.5695 164.596 46.2989V44.4193C164.596 40.1368 162.166 37.4602 158.06 37.4602ZM161.34 46.3227C161.34 49.1539 159.987 50.51 158.048 50.51C156.109 50.51 154.756 49.142 154.756 46.3227V44.3956C154.756 41.5762 156.121 40.113 158.048 40.113C159.975 40.113 161.34 41.5762 161.34 44.3956V46.3227Z" fill="#005298"/>
<path d="M176.292 47.4647H176.185L169.732 37.7457H167.11V52.8773H170.115V43.0989H170.223L176.688 52.8773H179.297V37.7457H176.292V47.4647Z" fill="#005298"/>
<path d="M193.831 44.0744L191.544 43.5628C190.192 43.2892 189.485 42.6944 189.485 41.826C189.485 40.6602 190.443 39.9346 191.987 39.9346C193.735 39.9346 194.609 40.9219 194.681 41.9807H197.662C197.626 39.3041 195.363 37.4483 191.999 37.4483C188.803 37.4483 186.289 39.1019 186.289 42.0639C186.289 44.6335 188.061 45.835 190.18 46.287L192.442 46.8104C193.963 47.1554 194.741 47.655 194.741 48.6781C194.741 49.8558 193.795 50.6528 192.011 50.6528C190.096 50.6528 189.09 49.6535 189.006 48.5353H185.93C185.978 50.6766 187.414 53.1747 191.856 53.1747C195.591 53.1747 197.901 51.3428 197.901 48.3688C197.901 45.6208 196.034 44.5502 193.819 44.0744" fill="#005298"/>
<path d="M210.543 37.7457H198.895V40.4104H203.121V52.8773H206.317V40.4104H210.543V37.7457Z" fill="#005298"/>
<path d="M214.733 37.7457L209.741 52.8773H212.937L214.063 49.1182H218.971L220.084 52.8773H223.496L218.528 37.7457H214.745H214.733ZM214.685 46.7628L216.457 40.7673H216.601L218.348 46.7628H214.697H214.685Z" fill="#005298"/>
<path d="M233.971 46.8342C235.073 46.3941 236.701 45.0736 236.701 42.5755C236.701 39.8513 234.953 37.7457 231.338 37.7457H225.196V52.8773H228.345V47.31H230.835L233.457 52.8773H237.012L233.983 46.8342H233.971ZM230.823 44.9665H228.333V40.2082H230.859C232.319 40.2082 233.397 41.029 233.397 42.6349C233.397 44.1576 232.403 44.9665 230.811 44.9665" fill="#005298"/>
<path d="M104.823 57.7071H103.673V64.119H104.823V57.7071Z" fill="#00AEEF"/>
<path d="M111.73 62.18H111.682L108.701 57.7071H107.708V64.1071H108.809V59.6104H108.845L111.838 64.1071H112.82V57.7071H111.73V62.18Z" fill="#00AEEF"/>
<path d="M115.082 58.6588H116.962V64.1071H118.099V58.6588H119.991V57.7071H115.082V58.6588Z" fill="#00AEEF"/>
<path d="M122.241 64.1071H126.347V63.1554H123.39V61.3116H126.168V60.4075H123.39V58.6469H126.347V57.7071H122.241V64.1071Z" fill="#00AEEF"/>
<path d="M133.77 59.6937C133.77 58.5993 133.063 57.7071 131.543 57.7071H129.029V64.119H130.166V61.6803H131.435L132.585 64.119H133.878L132.561 61.5019C133.075 61.2997 133.746 60.7643 133.746 59.7056M131.364 60.8H130.166V58.6231H131.387C132.094 58.6231 132.585 59.0037 132.585 59.7294C132.585 60.4194 132.142 60.8 131.364 60.8Z" fill="#00AEEF"/>
<path d="M140.426 62.18H140.39L137.409 57.7071H136.416V64.1071H137.505V59.6104H137.541L140.534 64.1071H141.515V57.7071H140.426V62.18Z" fill="#00AEEF"/>
<path d="M145.993 57.7071L143.778 64.119H144.939L145.49 62.3941H147.728L148.279 64.119H149.512L147.297 57.7071H145.993ZM145.741 61.5138L146.591 58.8491H146.639L147.489 61.5138H145.753H145.741Z" fill="#00AEEF"/>
<path d="M150.625 58.6588H152.517V64.1071H153.654V58.6588H155.546V57.7071H150.625V58.6588Z" fill="#00AEEF"/>
<path d="M158.946 57.7071H157.797V64.119H158.946V57.7071Z" fill="#00AEEF"/>
<path d="M164.309 57.5762C162.621 57.5762 161.58 58.6826 161.58 60.5026V61.3591C161.58 63.1673 162.609 64.2379 164.297 64.2379C165.985 64.2379 167.027 63.1673 167.027 61.3591V60.5026C167.027 58.6826 165.997 57.5762 164.309 57.5762ZM165.865 61.3591C165.865 62.6558 165.207 63.2744 164.309 63.2744C163.411 63.2744 162.741 62.6558 162.741 61.3591V60.4907C162.741 59.1941 163.399 58.5398 164.309 58.5398C165.219 58.5398 165.865 59.206 165.865 60.4907V61.3591Z" fill="#00AEEF"/>
<path d="M173.683 62.18H173.635L170.654 57.7071H169.66V64.1071H170.762V59.6104H170.798L173.791 64.1071H174.772V57.7071H173.683V62.18Z" fill="#00AEEF"/>
<path d="M179.249 57.7071L177.035 64.119H178.196L178.747 62.3941H180.985L181.536 64.119H182.769L180.554 57.7071H179.249ZM178.998 61.5138L179.848 58.8491H179.884L180.734 61.5138H178.998Z" fill="#00AEEF"/>
<path d="M186.181 57.7071H185.02V64.1071H189.006V63.1316H186.181V57.7071Z" fill="#00AEEF"/>
<path d="M197.506 60.4669L196.464 60.2171C195.866 60.0863 195.567 59.7889 195.567 59.3844C195.567 58.8134 196.045 58.4803 196.776 58.4803C197.59 58.4803 198.009 58.9205 198.045 59.4439H199.134C199.11 58.2662 198.081 57.5643 196.776 57.5643C195.471 57.5643 194.405 58.2424 194.405 59.4796C194.405 60.5264 195.16 61.026 196.022 61.2164L197.063 61.4662C197.745 61.6327 198.081 61.8825 198.081 62.3584C198.081 62.9413 197.602 63.3101 196.788 63.3101C195.89 63.3101 195.411 62.8461 195.363 62.3108H194.25C194.274 63.1792 194.872 64.226 196.704 64.226C198.212 64.226 199.23 63.5004 199.23 62.2513C199.23 61.145 198.476 60.6811 197.506 60.4669Z" fill="#00AEEF"/>
<path d="M204.21 57.5762C202.57 57.5762 201.552 58.6469 201.552 60.5383V61.3115C201.552 63.1911 202.558 64.2379 204.21 64.2379C205.862 64.2379 206.712 63.1554 206.712 62.0967V62.0015H205.599C205.599 62.6796 205.132 63.2625 204.234 63.2625C203.336 63.2625 202.702 62.6558 202.702 61.2996V60.5383C202.702 59.206 203.312 58.5517 204.21 58.5517C205.108 58.5517 205.599 59.2179 205.599 59.8959H206.712V59.8127C206.712 58.6588 205.814 57.5881 204.21 57.5881" fill="#00AEEF"/>
<path d="M213.344 60.348H210.447V57.7071H209.298V64.1071H210.447V61.2997H213.344V64.1071H214.494V57.7071H213.344V60.348Z" fill="#00AEEF"/>
<path d="M219.857 57.5762C218.169 57.5762 217.127 58.6826 217.127 60.5026V61.3591C217.127 63.1673 218.157 64.2379 219.845 64.2379C221.533 64.2379 222.574 63.1673 222.574 61.3591V60.5026C222.574 58.6826 221.545 57.5762 219.857 57.5762ZM221.413 61.3591C221.413 62.6558 220.755 63.2744 219.857 63.2744C218.959 63.2744 218.289 62.6558 218.289 61.3591V60.4907C218.289 59.1941 218.947 58.5398 219.857 58.5398C220.767 58.5398 221.413 59.206 221.413 60.4907V61.3591Z" fill="#00AEEF"/>
<path d="M227.674 57.5762C225.986 57.5762 224.945 58.6826 224.945 60.5026V61.3591C224.945 63.1673 225.974 64.2379 227.662 64.2379C229.35 64.2379 230.392 63.1673 230.392 61.3591V60.5026C230.392 58.6826 229.362 57.5762 227.674 57.5762ZM229.231 61.3591C229.231 62.6558 228.572 63.2744 227.674 63.2744C226.776 63.2744 226.106 62.6558 226.106 61.3591V60.4907C226.106 59.1941 226.764 58.5398 227.674 58.5398C228.584 58.5398 229.231 59.206 229.231 60.4907V61.3591Z" fill="#00AEEF"/>
<path d="M234.175 63.1316V57.7071H233.025V64.1071H237V63.1316H234.175Z" fill="#00AEEF"/>
</g>
<defs>
<clipPath id="clip0_897_6557">
<rect width="237" height="96" fill="white"/>
</clipPath>
</defs>
</svg>
