<?xml version="1.0" encoding="utf-8"?>
<!-- Generator: Adobe Illustrator 17.0.0, SVG Export Plug-In . SVG Version: 6.00 Build 0)  -->
<!DOCTYPE svg PUBLIC "-//W3C//DTD SVG 1.1//EN" "http://www.w3.org/Graphics/SVG/1.1/DTD/svg11.dtd">
<svg version="1.1" id="Layer_1" xmlns="http://www.w3.org/2000/svg" xmlns:xlink="http://www.w3.org/1999/xlink" x="0px" y="0px"
	 width="36px" height="36px" viewBox="0 0 36 36" enable-background="new 0 0 36 36" xml:space="preserve">
<path opacity="0.2" d="M18,0c9.941,0,18,8.059,18,18s-8.059,18-18,18S0,27.941,0,18S8.059,0,18,0z"/>
<linearGradient id="SVGID_1_" gradientUnits="userSpaceOnUse" x1="32.9932" y1="0.3046" x2="4.3265" y2="34.1379">
	<stop  offset="0" style="stop-color:#5CCAF2"/>
	<stop  offset="0.1758" style="stop-color:#5CCAF2"/>
	<stop  offset="0.989" style="stop-color:#0067A5"/>
	<stop  offset="1" style="stop-color:#0067A5"/>
</linearGradient>
<path fill="url(#SVGID_1_)" style="fill:#d0b475" d="M18,2c8.836,0,16,7.164,16,16s-7.164,16-16,16S2,26.836,2,18S9.164,2,18,2z"/>
<path opacity="1" fill="#FFFFFF" d="M18.103,6.909C14.222,8.56,11.009,11.478,9,15.105c2.647-1.497,5.688-2.381,8.916-2.435
	c3.33-0.055,6.432,0.78,9.084,2.277C25.124,11.317,21.978,8.452,18.103,6.909"/>
<g>
	<path fill="#FFFFFF" d="M11.421,27.086h-0.948v-6.69H8v-0.751h5.893v0.751h-2.472V27.086z"/>
	<path fill="#FFFFFF" d="M20.207,26.277c-0.559,0.617-1.423,0.924-2.594,0.924c-1.171,0-2.036-0.308-2.594-0.924
		c-0.559-0.616-0.837-1.587-0.837-2.911c0-1.325,0.279-2.295,0.837-2.912s1.423-0.924,2.594-0.924c1.17,0,2.035,0.308,2.594,0.924
		s0.837,1.587,0.837,2.912C21.044,24.69,20.766,25.661,20.207,26.277z M19.831,21.591c-0.177-0.442-0.447-0.762-0.808-0.959
		c-0.363-0.197-0.833-0.294-1.41-0.294c-0.577,0-1.047,0.098-1.409,0.294c-0.363,0.197-0.632,0.517-0.809,0.959
		c-0.177,0.443-0.266,1.034-0.266,1.774c0,0.739,0.089,1.331,0.266,1.773c0.177,0.443,0.447,0.762,0.809,0.959
		c0.362,0.197,0.832,0.295,1.409,0.295c0.577,0,1.047-0.098,1.41-0.295c0.362-0.197,0.631-0.516,0.808-0.959
		c0.177-0.442,0.266-1.034,0.266-1.773C20.097,22.625,20.009,22.035,19.831,21.591z"/>
	<path fill="#FFFFFF" d="M27.336,23.763c-0.443,0.42-1.045,0.629-1.808,0.629h-2.15v2.693h-0.947v-7.442h3.143
		c0.801,0,1.406,0.218,1.814,0.653C27.796,20.732,28,21.316,28,22.048C28,22.772,27.779,23.344,27.336,23.763z M26.625,23.227
		c0.285-0.285,0.428-0.678,0.428-1.179c0-0.531-0.135-0.94-0.405-1.224c-0.269-0.285-0.674-0.428-1.213-0.428h-2.057v3.259h1.999
		C25.925,23.654,26.34,23.511,26.625,23.227z"/>
</g>
</svg>
